<?xml version="1.0" standalone="no"?>
<!DOCTYPE svg PUBLIC "-//W3C//DTD SVG 20010904//EN"
 "http://www.w3.org/TR/2001/REC-SVG-20010904/DTD/svg10.dtd">
<svg version="1.0" xmlns="http://www.w3.org/2000/svg"
 width="750.000000pt" height="1040.000000pt" viewBox="0 0 750.000000 1040.000000"
 preserveAspectRatio="xMidYMid meet">

<g transform="translate(0.000000,1040.000000) scale(0.100000,-0.100000)"
fill="#000000" stroke="none">
<path d="M0 10181 l1 -218 25 -11 c13 -7 24 -17 24 -24 0 -23 -18 -41 -34 -35
-11 5 -16 1 -16 -14 0 -12 8 -23 20 -26 25 -7 26 -23 1 -23 -25 0 -25 -46 0
-64 15 -10 20 -26 20 -66 1 -44 -2 -56 -20 -70 l-22 -16 25 -12 c15 -7 26 -20
26 -31 0 -28 -18 -36 -22 -9 -2 12 -9 23 -16 26 -10 3 -12 -669 -12 -3412 1
-2431 4 -3416 12 -3416 7 0 7 -4 0 -13 -15 -18 -13 -399 2 -410 7 -6 7 -10 1
-13 -6 -2 -9 -35 -7 -82 5 -103 2 -809 -4 -1260 -4 -256 -2 -373 6 -397 6 -19
8 -40 5 -46 -4 -6 -6 -70 -5 -142 2 -73 3 -139 3 -147 0 -8 -4 -56 -8 -105 -6
-72 -5 -93 6 -102 11 -9 644 -12 2517 -15 2147 -3 2504 -1 2511 11 8 12 11 12
24 0 12 -13 178 -15 1180 -17 l1165 -3 37 21 c21 12 39 19 42 16 3 -2 -8 -11
-24 -20 l-28 -15 33 -1 33 0 -3 3203 c-2 1761 -7 3578 -11 4037 -6 707 -8
1863 -3 2440 0 85 -1 278 -4 427 l-5 273 -3738 0 -3738 0 1 -219z m7280 -14
c0 -2 -10 -12 -21 -23 -22 -19 -22 -19 -10 4 10 18 31 31 31 19z m-3225 -778
c6 -4 31 -11 54 -15 27 -4 52 -16 64 -30 11 -13 29 -24 39 -24 10 0 18 -4 18
-9 0 -5 -48 -8 -107 -6 -60 1 -144 -2 -188 -7 -44 -5 -102 -11 -130 -14 -27
-3 -72 -14 -100 -25 -58 -22 -55 -21 -55 -11 0 12 84 55 113 58 12 2 45 8 72
14 28 7 102 12 167 13 64 1 119 5 122 8 24 24 -263 15 -344 -11 -19 -6 -46
-13 -60 -16 -13 -3 -51 -20 -84 -39 -47 -26 -56 -35 -43 -41 9 -3 24 -1 32 6
8 7 15 8 15 4 0 -5 -20 -21 -44 -36 -25 -15 -53 -39 -62 -55 -10 -15 -33 -46
-51 -67 -30 -36 -44 -76 -25 -76 4 0 18 9 32 21 57 45 80 60 80 51 0 -6 -23
-29 -51 -51 -37 -29 -55 -38 -64 -31 -17 14 -47 -22 -52 -63 -4 -42 -8 -58
-17 -80 -6 -12 -2 -22 15 -35 16 -14 20 -24 14 -38 -8 -18 -8 -18 -13 1 -15
71 -77 4 -81 -89 l-2 -38 36 20 c19 12 35 17 35 12 0 -6 -5 -10 -11 -10 -8 0
-10 -17 -7 -50 3 -28 1 -53 -4 -56 -6 -4 -6 -10 0 -16 16 -16 32 0 32 33 0 20
5 29 16 29 11 0 14 6 9 21 -4 13 -2 24 4 29 9 5 9 14 1 34 -7 20 -6 36 4 61 8
18 12 43 9 55 -6 21 -5 21 30 3 20 -10 37 -24 37 -32 0 -13 15 -12 67 5 12 4
9 -3 -11 -21 -24 -22 -26 -29 -15 -36 20 -13 29 -11 29 6 0 8 6 15 13 15 6 0
44 32 82 71 39 39 86 81 105 94 19 12 58 45 86 71 142 135 238 181 449 213 60
9 85 6 85 -9 0 -5 -17 -9 -37 -8 -44 0 -158 -20 -182 -32 -9 -4 -36 -16 -61
-26 -67 -27 -135 -76 -209 -151 -57 -58 -62 -65 -37 -59 25 6 27 5 21 -14 -5
-16 -2 -20 17 -18 13 2 30 11 39 21 9 9 21 17 28 17 8 0 8 -6 2 -17 -5 -10
-12 -26 -15 -36 -4 -13 -12 -17 -25 -12 -13 4 -35 -4 -60 -19 -22 -14 -43 -22
-46 -17 -6 10 21 41 36 41 5 0 9 7 9 15 0 17 -26 20 -35 5 -5 -8 -11 -7 -21 1
-11 9 -18 9 -26 1 -9 -9 -9 -12 0 -12 25 0 11 -16 -29 -33 -50 -22 -46 -43 7
-41 l39 2 -32 -10 c-18 -6 -33 -17 -33 -24 0 -8 -8 -14 -19 -14 -10 0 -26 -11
-35 -25 -9 -14 -21 -25 -26 -25 -11 0 -69 -61 -70 -72 -1 -22 30 -4 44 26 15
32 43 53 54 41 3 -3 6 -29 6 -58 1 -28 5 -58 9 -65 11 -16 1 -45 -13 -37 -5 3
-10 15 -10 26 0 22 -11 24 -28 7 -8 -8 -12 -8 -12 -1 0 6 7 16 15 23 8 7 15
18 15 25 0 21 -40 5 -58 -24 -9 -14 -24 -34 -34 -44 -17 -16 -15 -47 3 -47 12
0 -2 -33 -19 -46 -12 -8 -12 -15 -3 -32 6 -12 17 -22 22 -22 7 0 9 -10 5 -25
-4 -14 -5 -25 -2 -25 2 0 22 19 45 41 28 28 40 48 36 59 -7 21 11 70 25 70 5
0 10 -13 10 -30 0 -34 15 -40 23 -10 3 11 12 20 21 20 22 0 20 -11 -8 -37 -25
-24 -40 -72 -27 -86 4 -4 16 2 26 13 14 16 15 22 5 35 -10 12 -10 15 2 15 18
0 41 57 24 63 -8 3 -7 8 2 20 8 9 11 21 8 26 -4 5 -2 12 3 15 5 4 12 2 16 -4
17 -28 61 21 54 61 -1 8 1 22 4 32 21 55 22 63 4 60 -16 -3 -40 34 -31 48 4 6
13 4 25 -7 18 -17 20 -16 33 2 14 18 15 18 21 1 4 -9 5 -27 2 -40 -3 -12 0
-29 6 -38 11 -15 16 -15 37 -3 21 11 22 13 6 14 -12 0 -16 5 -13 15 4 8 2 17
-3 20 -15 9 -12 25 4 25 8 0 18 -9 21 -20 3 -11 13 -20 21 -20 11 0 13 6 9 23
-6 18 -3 17 22 -10 16 -18 33 -30 36 -26 14 13 6 42 -13 48 -26 8 -25 22 3 36
12 6 56 44 97 83 42 39 86 79 98 89 13 10 20 22 17 27 -3 6 3 10 13 10 22 0
46 23 35 33 -3 4 5 7 20 7 14 0 59 7 99 16 110 24 268 25 268 2 0 -6 -22 -7
-54 -3 -53 7 -104 -1 -91 -13 4 -4 32 -11 62 -17 32 -6 58 -16 61 -24 3 -10 0
-12 -14 -7 -10 4 -77 10 -148 12 l-128 6 -64 -33 c-35 -18 -64 -36 -64 -39 0
-4 -24 -24 -54 -44 -63 -43 -150 -125 -142 -133 6 -7 129 71 147 93 13 16 39
19 39 3 0 -5 -13 -15 -29 -20 -16 -6 -43 -28 -60 -50 -18 -21 -41 -39 -51 -39
-22 0 -23 -1 -15 -22 5 -12 20 -10 83 9 42 13 91 28 107 34 17 6 59 16 95 21
89 13 95 15 81 32 -17 20 -4 25 55 19 37 -4 54 -2 54 6 0 6 -5 11 -10 11 -6 0
-20 9 -32 20 -33 30 -5 24 49 -11 37 -23 56 -29 80 -25 36 5 52 -8 27 -22 -11
-6 -13 -11 -5 -16 6 -4 14 0 17 8 8 20 38 21 54 1 15 -18 43 -19 69 -3 11 6
26 8 37 3 11 -4 27 -7 37 -6 10 1 21 -8 27 -23 7 -20 16 -26 41 -26 18 0 37
-6 43 -14 6 -8 21 -17 34 -21 21 -6 22 -4 16 22 l-6 28 24 -27 c21 -25 172
-108 196 -108 5 0 20 -10 34 -23 14 -13 39 -29 57 -36 17 -8 31 -17 31 -22 0
-5 5 -9 11 -9 15 0 85 -56 135 -107 22 -24 48 -43 58 -43 9 0 14 -4 11 -10
-13 -21 -52 -9 -94 30 -24 22 -48 40 -54 40 -5 0 -25 11 -43 25 -18 14 -37 25
-43 25 -6 0 -15 9 -21 19 -6 12 -17 17 -27 15 -20 -6 -88 20 -98 36 -3 5 1 10
9 10 26 0 18 17 -14 29 -16 6 -43 16 -59 22 -17 6 -35 8 -40 4 -6 -3 -11 1
-11 9 0 8 -10 18 -22 21 -13 4 -37 13 -54 21 -18 8 -59 13 -95 12 -35 -1 -84
2 -108 6 -25 5 -41 4 -38 -1 3 -5 -35 -8 -86 -7 -51 0 -96 -2 -102 -5 -5 -3
-14 -6 -20 -6 -56 -3 -137 -19 -152 -30 -33 -24 4 -34 72 -20 63 13 127 17
134 9 13 -18 48 -32 62 -24 8 5 41 7 74 5 78 -4 75 -3 75 -16 0 -6 -7 -9 -15
-5 -19 7 -65 -10 -65 -24 0 -5 16 -10 35 -10 41 0 96 -35 88 -56 -7 -18 -62
-15 -85 4 -12 10 -29 12 -60 7 -50 -8 -85 -24 -55 -25 14 0 17 -5 12 -20 -6
-19 -3 -20 34 -14 36 6 41 4 41 -13 0 -22 33 -35 135 -53 39 -7 75 -17 82 -22
7 -5 20 -7 31 -4 10 4 32 0 48 -8 16 -7 44 -20 62 -27 17 -8 32 -16 32 -19 0
-6 39 -10 92 -10 20 0 39 -4 42 -9 8 -13 -72 -25 -87 -13 -12 10 -39 15 -67
13 -18 -1 36 -31 56 -31 8 0 14 -4 14 -9 0 -5 33 -19 73 -31 39 -13 92 -33
117 -45 25 -12 58 -25 74 -29 26 -6 28 -5 16 9 -24 28 -4 26 53 -7 165 -97
164 -96 320 -230 36 -31 139 -175 154 -215 4 -10 10 -21 15 -24 4 -3 16 -28
26 -55 23 -65 30 -74 53 -74 12 0 19 -7 19 -20 0 -11 14 -29 30 -42 17 -12 30
-26 30 -32 0 -6 -5 -5 -12 2 -7 7 -19 12 -27 12 -10 0 -3 -13 21 -35 20 -19
40 -35 45 -35 4 0 14 -9 21 -20 7 -11 19 -20 27 -20 8 0 15 -4 15 -10 0 -11
-31 -1 -45 16 -5 6 -20 14 -33 17 -21 5 -22 3 -16 -31 4 -21 11 -42 16 -49 5
-7 7 -21 3 -32 -3 -12 2 -36 14 -59 19 -37 19 -38 0 -50 -26 -17 -32 -15 -26
7 2 10 0 26 -5 35 -6 11 -5 16 3 16 8 0 6 6 -4 18 -9 10 -19 38 -22 63 -10 78
-30 129 -50 129 -7 0 -28 15 -48 33 -19 17 -62 45 -94 62 -32 16 -61 34 -64
39 -4 4 -9 4 -13 -2 -3 -5 3 -20 14 -32 11 -13 20 -27 20 -31 0 -4 14 -23 30
-41 17 -18 34 -44 37 -57 11 -43 66 -110 91 -110 12 -1 23 -7 23 -13 6 -65 13
-88 38 -123 37 -51 58 -65 71 -45 8 13 10 12 10 -2 0 -10 -1 -20 -2 -21 -2 -2
31 -42 72 -88 40 -46 81 -93 90 -103 14 -18 14 -18 -8 -7 -13 7 -71 59 -128
117 -76 75 -106 100 -110 89 -8 -20 -23 -19 -46 2 -17 15 -18 15 -18 -1 0 -9
13 -25 30 -34 35 -20 39 -32 10 -32 -18 0 -17 -4 13 -45 17 -24 42 -47 55 -51
12 -3 22 -10 22 -15 0 -5 10 -14 23 -20 18 -8 14 -9 -20 -5 -38 4 -41 3 -27
-12 9 -8 26 -32 39 -53 14 -20 29 -40 35 -44 10 -6 50 -78 50 -90 0 -3 -6 -5
-14 -5 -8 0 -16 -6 -19 -12 -4 -10 -7 -10 -18 0 -7 6 -22 12 -32 12 -16 0 -18
5 -13 26 6 24 5 26 -17 20 -17 -4 -27 -1 -31 9 -3 8 -1 15 4 15 6 0 10 -5 10
-12 0 -9 3 -9 12 0 8 8 3 20 -23 49 -19 21 -45 55 -57 76 -22 35 -42 48 -42
28 0 -5 -3 -16 -6 -24 -3 -9 2 -16 15 -20 27 -7 77 -87 61 -97 -7 -5 -10 -15
-7 -24 4 -9 4 -16 0 -16 -10 0 -63 59 -63 70 0 5 -7 10 -15 10 -26 0 -16 -22
30 -67 45 -42 65 -53 65 -33 0 6 5 10 10 10 6 0 10 -6 10 -14 0 -8 14 -26 30
-39 37 -32 38 -47 4 -47 -23 0 -25 3 -20 25 6 23 3 25 -24 25 -20 0 -30 -5
-30 -15 0 -8 -6 -15 -12 -15 -9 0 -8 -3 2 -9 8 -6 17 -8 21 -5 4 2 13 -3 20
-12 18 -22 -7 -37 -35 -19 -25 15 -106 27 -106 14 0 -12 38 -31 49 -25 5 3 23
-8 41 -24 18 -17 36 -30 41 -30 22 0 6 -16 -18 -18 -14 -1 -34 -9 -43 -17 -9
-8 -19 -12 -23 -9 -3 3 -11 3 -17 -1 -15 -9 7 -36 24 -29 16 6 29 -23 15 -32
-6 -3 -21 4 -35 17 -19 18 -24 19 -24 6 0 -37 92 -77 103 -44 3 9 7 9 18 1 8
-6 27 -14 43 -18 41 -10 226 -186 219 -208 -2 -4 8 -18 20 -32 26 -28 143
-116 155 -116 11 0 72 -60 72 -71 0 -5 -6 -9 -14 -9 -8 0 -13 8 -12 18 0 10
-5 16 -15 14 -9 -1 -22 5 -29 13 -7 8 -18 15 -26 15 -7 0 -20 9 -28 21 -8 12
-18 19 -23 16 -12 -8 -81 26 -97 48 -11 15 -17 17 -28 7 -12 -10 -19 -8 -33 8
-11 13 -14 20 -6 20 20 0 -10 23 -46 37 -30 10 -32 10 -23 -6 5 -10 16 -23 24
-31 9 -7 16 -17 16 -23 0 -6 12 -22 27 -34 14 -13 23 -26 20 -30 -4 -3 -16 2
-27 12 -23 21 -27 8 -7 -20 10 -12 22 -16 40 -13 15 3 27 1 27 -3 0 -13 61
-69 75 -69 7 0 15 -11 18 -25 4 -25 4 -25 -19 -10 -30 19 -29 19 -30 -10 -2
-21 3 -25 26 -25 30 0 150 -81 150 -101 0 -8 4 -8 14 0 8 7 12 20 9 31 -11 41
4 65 41 67 29 2 35 -1 40 -23 9 -35 2 -40 -30 -20 -14 10 -28 16 -30 13 -3 -2
-2 -23 2 -46 5 -34 12 -44 40 -57 18 -9 45 -28 60 -42 l27 -27 -27 -3 c-19 -3
-33 5 -52 27 -14 17 -31 31 -38 31 -7 0 -34 14 -61 31 -26 17 -57 31 -69 33
-12 1 -43 12 -70 24 -28 12 -58 19 -71 16 -13 -3 -35 3 -56 15 -19 12 -42 21
-51 21 -9 0 -21 6 -25 13 -4 6 -18 18 -31 25 -19 11 -27 11 -39 1 -11 -10 -19
-10 -34 -1 -26 17 -24 8 6 -24 14 -15 23 -20 19 -11 -5 15 -2 15 25 6 17 -6
31 -13 31 -16 0 -3 -8 -2 -17 1 -15 5 -15 3 1 -9 12 -9 24 -11 29 -6 14 14 55
-12 71 -47 9 -18 20 -31 25 -27 5 3 16 -2 25 -11 9 -8 20 -13 25 -10 10 7 61
-31 61 -45 0 -5 -7 -9 -15 -9 -8 0 -15 5 -15 10 0 6 -10 10 -23 10 -13 0 -28
5 -34 11 -8 8 -11 1 -11 -25 0 -20 4 -36 9 -36 5 0 9 7 9 15 0 8 9 15 20 15
24 0 25 -4 5 -23 -13 -13 -10 -18 25 -36 22 -11 51 -23 65 -25 32 -6 47 -15
40 -26 -3 -4 5 -6 17 -4 13 2 17 2 11 -2 -20 -9 -15 -31 9 -37 18 -5 19 -9 9
-21 -17 -20 -6 -35 19 -29 11 3 20 0 20 -6 0 -6 20 -30 45 -53 25 -23 45 -48
45 -55 0 -8 -4 -11 -10 -8 -5 3 -10 -1 -10 -11 0 -22 82 -97 91 -83 8 14 49
-10 49 -29 0 -7 7 -20 15 -28 8 -9 15 -21 15 -27 0 -7 -16 7 -35 30 -31 36
-38 40 -63 33 -21 -5 -32 -2 -49 13 -13 11 -23 15 -23 9 0 -8 -19 -10 -57 -7
-97 7 -108 10 -103 20 6 12 64 7 68 -6 2 -5 13 -4 25 3 12 7 34 11 50 9 19 -2
27 2 27 13 0 22 -46 49 -72 43 -12 -3 -30 -1 -42 5 -11 6 -33 11 -48 10 -15 0
-28 4 -28 10 0 6 -10 8 -25 4 -37 -9 -106 12 -132 40 -25 27 -75 36 -53 9 7
-8 18 -15 25 -15 8 0 15 -4 17 -9 5 -14 80 -61 97 -61 40 0 70 -24 73 -60 2
-28 8 -36 27 -38 13 -2 38 -18 55 -36 17 -18 39 -35 49 -39 9 -3 17 -12 18
-19 0 -7 15 -25 34 -41 47 -39 54 -11 9 38 -36 40 -38 68 -2 35 30 -27 40 -25
32 6 -7 25 -5 27 22 20 16 -4 41 -16 56 -27 32 -23 88 -36 88 -21 0 6 10 8 23
4 19 -5 20 -3 10 10 -7 8 -14 31 -15 51 -3 35 -28 55 -28 22 0 -8 -4 -15 -10
-15 -14 0 -12 28 3 33 9 3 7 10 -7 25 -11 12 -16 30 -13 41 3 12 -3 27 -14 37
-10 9 -24 32 -31 50 -7 19 -16 34 -20 34 -4 0 -8 9 -8 19 0 12 -11 23 -31 30
-17 6 -28 15 -24 21 8 14 36 13 32 -1 -1 -6 4 -14 11 -16 6 -3 12 0 12 7 0 8
6 8 21 -1 17 -9 19 -13 8 -20 -17 -10 0 -44 22 -44 24 -1 36 -14 43 -45 3 -18
10 -29 16 -25 5 3 10 0 10 -8 0 -8 13 -41 30 -73 16 -32 32 -71 35 -86 5 -20
11 -25 23 -21 14 6 15 4 4 -9 -14 -17 -3 -56 26 -91 9 -10 16 -41 17 -80 0
-34 5 -69 10 -77 5 -8 10 -23 11 -34 1 -12 5 -46 9 -76 4 -30 8 -61 8 -67 0
-7 4 -13 8 -13 4 0 14 -3 22 -6 12 -4 14 0 10 15 -8 29 6 26 17 -4 6 -16 6
-34 -1 -51 -9 -25 -11 -26 -28 -10 -9 9 -20 16 -23 16 -4 0 -5 -34 -5 -75 2
-70 4 -76 25 -82 19 -4 21 -8 10 -21 -15 -18 -17 -32 -22 -222 -2 -80 -7 -153
-11 -163 -15 -35 -30 -10 -31 49 -1 65 -12 153 -22 169 -4 6 -7 15 -8 20 0 6
-2 16 -2 23 -1 6 -7 12 -12 12 -7 0 -7 -6 -1 -18 7 -13 6 -23 -1 -30 -15 -15
-19 -38 -17 -87 4 -92 -16 -254 -35 -272 -4 -4 -16 -2 -26 5 -20 12 -26 6 -21
-22 1 -4 -3 -14 -9 -21 -8 -10 -8 -15 0 -20 6 -4 17 -1 23 7 7 8 31 20 53 26
23 7 76 28 118 47 54 24 76 31 76 21 0 -8 -17 -22 -37 -31 -21 -10 -49 -26
-63 -35 -14 -10 -41 -21 -60 -26 -19 -4 -42 -10 -50 -12 -8 -2 -34 -6 -57 -9
-34 -4 -43 -2 -43 10 0 8 -7 20 -15 27 -8 7 -15 29 -16 49 -1 20 -4 47 -8 61
l-7 25 -32 -35 c-18 -19 -35 -43 -38 -52 -4 -14 -12 -16 -31 -12 -21 6 -25 4
-20 -8 8 -23 -21 -58 -48 -58 -14 0 -42 -7 -62 -15 -61 -23 -91 -26 -99 -7 -4
9 -6 21 -5 26 1 5 -5 6 -13 3 -11 -4 -12 0 -7 21 9 31 31 41 31 13 0 -11 10
-27 22 -35 28 -20 38 -20 38 -1 0 8 5 15 10 15 15 0 70 42 70 52 0 5 -16 6
-35 2 -28 -5 -35 -3 -35 10 0 8 9 20 20 26 23 12 26 35 8 47 -20 12 -38 50
-38 77 0 13 -7 27 -16 30 -26 10 -26 2 -3 -42 12 -22 19 -48 16 -56 -5 -13
-13 -9 -42 22 -19 22 -35 44 -35 50 0 12 -39 37 -46 30 -2 -3 5 -23 16 -46 32
-66 40 -91 31 -97 -5 -2 -14 2 -21 10 -7 8 -21 15 -31 15 -11 0 -18 3 -17 8 4
18 -16 62 -28 62 -20 0 -17 -47 4 -59 14 -8 15 -12 4 -23 -11 -11 -15 -10 -25
2 -7 9 -20 14 -29 12 -22 -4 -24 26 -3 34 8 4 15 10 15 15 0 5 -7 9 -15 9 -8
0 -15 -4 -15 -8 0 -16 -48 -33 -56 -20 -4 7 -2 14 4 16 19 6 14 37 -9 58 -12
10 -28 34 -36 52 -16 39 -37 35 -22 -5 5 -14 18 -37 29 -51 22 -27 25 -42 10
-42 -5 0 -16 14 -25 30 -9 17 -20 30 -26 30 -18 0 -67 -58 -79 -94 -6 -20 -18
-36 -26 -36 -16 0 -19 -26 -4 -35 18 -11 0 -25 -30 -25 -22 0 -28 4 -24 15 4
8 12 15 19 15 12 0 16 6 34 64 9 25 8 27 -10 23 -26 -7 -24 6 6 42 22 25 25
37 22 81 -3 29 -11 59 -20 68 -15 14 -17 13 -26 -11 -6 -15 -8 -34 -5 -42 4
-8 1 -15 -5 -15 -14 0 -51 -36 -51 -50 0 -5 -4 -10 -10 -10 -5 0 -10 -6 -10
-14 0 -8 -9 -18 -20 -21 -11 -3 -20 -11 -20 -16 0 -14 -17 -11 -34 6 -17 17
-21 13 -31 -32 -6 -29 -4 -33 14 -33 12 0 21 -6 21 -15 0 -8 -4 -15 -10 -15
-5 0 -10 -9 -10 -20 0 -12 7 -20 16 -20 11 0 14 -5 10 -16 -3 -9 -6 -25 -6
-37 0 -12 -11 -35 -25 -51 -14 -16 -26 -33 -26 -38 -1 -4 -2 -12 -3 -17 -2
-18 -22 -31 -48 -33 -15 -1 -25 -5 -22 -9 2 -4 -2 -13 -9 -21 -7 -7 -20 -25
-29 -40 -10 -15 -31 -29 -50 -33 -31 -7 -36 -4 -83 49 -66 73 -90 75 -100 7
-8 -60 -36 -80 -30 -23 1 20 4 39 5 42 1 3 2 9 1 14 -1 4 2 13 7 20 5 6 12 43
15 81 4 39 15 111 26 160 10 50 22 117 26 150 9 64 10 71 20 126 6 31 4 37
-14 42 -15 4 -19 11 -15 28 2 13 6 38 8 54 2 17 9 50 15 74 9 32 10 55 2 84
-5 23 -7 45 -5 49 3 5 0 16 -8 25 -10 13 -10 17 0 20 6 3 12 9 12 15 0 6 -7 7
-16 4 -8 -3 -12 -2 -9 3 3 5 7 31 10 58 6 57 21 126 35 153 6 11 15 29 20 40
8 16 7 20 -6 20 -14 0 -15 7 -10 40 5 31 3 40 -8 40 -8 0 -17 -9 -21 -19 -4
-12 -12 -18 -21 -14 -10 4 -12 0 -7 -13 6 -15 1 -14 -27 6 -26 18 -32 20 -27
7 8 -22 -8 -31 -23 -12 -13 16 -35 21 -26 6 3 -5 -1 -14 -9 -21 -8 -7 -12 -16
-9 -21 3 -5 -4 -9 -15 -9 -27 0 -37 -19 -18 -33 13 -10 14 -20 5 -66 -9 -42
-9 -56 0 -59 7 -2 12 -10 12 -18 0 -9 -4 -13 -9 -10 -4 3 -18 -5 -30 -18 -20
-21 -20 -24 -6 -36 12 -10 13 -15 4 -21 -10 -6 -10 -11 0 -22 9 -11 9 -17 1
-22 -8 -5 -6 -12 5 -25 8 -9 13 -24 9 -34 -6 -17 -19 -21 -27 -8 -2 4 -2 1 -1
-5 2 -7 -1 -13 -6 -13 -14 0 -8 -61 7 -67 7 -3 13 -16 13 -29 0 -15 6 -24 15
-24 8 0 15 7 15 15 0 17 26 20 35 4 4 -5 -1 -19 -11 -30 -15 -17 -16 -24 -6
-40 11 -16 9 -19 -8 -19 -11 0 -19 -6 -17 -12 1 -7 -4 -12 -12 -10 -8 2 -18
-2 -22 -9 -4 -7 -20 -13 -36 -14 -22 -1 -27 -6 -25 -21 6 -33 19 -36 45 -12
36 33 88 68 102 68 3 0 5 -9 5 -20 0 -11 7 -20 15 -20 20 0 19 19 -3 55 -17
27 -17 32 -4 52 8 13 18 20 23 17 5 -3 9 4 9 15 0 12 5 21 11 21 6 0 8 -11 4
-29 -4 -21 -2 -30 11 -35 15 -6 14 -9 -8 -29 -21 -20 -23 -27 -15 -57 6 -23 5
-36 -2 -38 -6 -2 -11 -12 -11 -22 0 -10 -4 -20 -10 -22 -5 -1 -6 -14 -3 -28
l7 -25 7 25 c6 22 7 21 8 -10 1 -20 -4 -41 -11 -48 -15 -15 -11 -104 5 -115 7
-5 0 -7 -18 -5 -30 4 -30 3 -30 -43 0 -35 3 -45 12 -38 20 17 25 -8 9 -46 -12
-27 -21 -35 -40 -35 -30 0 -36 -29 -11 -50 18 -15 20 -51 3 -47 -8 1 -14 -10
-15 -28 -1 -16 0 -24 3 -17 8 17 24 15 24 -3 0 -8 -4 -15 -10 -15 -5 0 -10 -8
-10 -17 0 -19 -20 -81 -33 -100 -4 -6 -2 -13 5 -15 6 -2 8 -10 4 -16 -4 -7
-16 -10 -27 -7 -10 4 -19 2 -19 -4 0 -5 10 -11 22 -13 27 -4 38 -38 13 -38
-10 0 -14 5 -9 13 5 9 4 9 -6 0 -13 -12 -4 -37 11 -28 5 4 9 -1 9 -9 0 -8 -6
-13 -13 -10 -7 2 -23 -9 -35 -26 -13 -16 -18 -30 -12 -30 5 0 10 -7 10 -15 0
-17 -12 -34 -47 -67 -11 -11 -24 -36 -28 -56 -7 -38 -49 -127 -64 -136 -5 -3
-12 -22 -15 -41 -4 -21 -13 -35 -21 -35 -8 0 -15 -7 -15 -16 0 -8 -21 -38 -47
-65 -25 -27 -54 -62 -64 -78 -23 -37 -274 -291 -288 -291 -13 0 6 51 59 160
58 118 100 221 100 244 1 11 9 39 20 61 11 22 19 48 20 58 0 9 4 17 8 17 4 0
23 42 40 93 27 76 31 99 23 120 -6 15 -7 27 -2 27 10 0 25 38 41 105 10 44 9
51 -7 62 -10 7 -23 17 -30 23 -20 17 -35 12 -28 -11 5 -15 2 -22 -14 -26 -24
-6 -29 -23 -7 -23 25 0 27 -17 6 -53 -13 -22 -17 -38 -11 -41 6 -4 8 -13 4
-21 -3 -9 0 -21 6 -28 8 -10 6 -19 -5 -35 -8 -12 -16 -36 -16 -53 -1 -16 -5
-32 -10 -35 -4 -3 -8 -15 -8 -28 0 -13 -9 -49 -21 -82 -11 -32 -24 -77 -30
-99 -9 -38 -20 -68 -40 -107 -5 -10 -9 -27 -9 -38 0 -11 -7 -23 -15 -26 -8 -4
-15 -13 -15 -21 0 -8 -6 -27 -13 -41 -8 -15 -31 -62 -53 -104 -21 -43 -42 -78
-46 -78 -5 0 -8 -6 -8 -14 0 -21 -85 -144 -153 -221 -99 -111 -223 -230 -292
-280 -22 -16 -58 -45 -81 -66 -23 -20 -51 -40 -63 -44 -12 -4 -37 -21 -56 -38
-18 -18 -48 -44 -67 -59 -18 -15 -53 -45 -78 -67 -25 -22 -48 -41 -52 -41 -3
0 -31 -20 -61 -45 -31 -25 -60 -45 -65 -45 -5 0 -17 -10 -28 -21 -10 -12 -39
-35 -63 -52 -24 -16 -51 -36 -60 -44 -9 -8 -45 -33 -81 -57 -63 -40 -108 -51
-137 -33 -6 4 -14 4 -16 0 -3 -5 -33 -7 -66 -7 -49 2 -64 -2 -74 -16 -17 -24
-82 -20 -101 5 -8 12 -15 14 -20 7 -7 -11 -57 9 -89 37 -17 14 -20 14 -32 -2
-14 -19 -26 -23 -23 -6 2 6 -3 14 -9 16 -7 3 -13 -2 -13 -11 0 -9 -2 -16 -4
-16 -2 0 -13 -3 -23 -6 -17 -5 -17 -5 0 6 28 18 19 32 -20 29 -40 -3 -83 17
-83 38 0 7 -6 13 -14 13 -7 0 -16 8 -18 18 -4 13 -18 21 -43 25 -39 6 -75 31
-75 52 0 12 -14 19 -70 35 l-25 8 28 1 c32 1 36 22 9 49 -10 10 -22 27 -26 37
-6 16 -9 17 -16 5 -5 -8 -6 -26 -3 -39 4 -17 2 -22 -8 -19 -8 3 -16 15 -17 29
-2 13 -10 28 -18 32 -8 5 -12 12 -9 17 3 5 1 11 -5 15 -5 3 -10 1 -10 -5 0 -6
-5 -8 -10 -5 -6 3 -10 13 -10 21 0 8 -18 39 -40 69 -22 30 -40 56 -40 59 0 3
-23 28 -50 57 -27 29 -50 56 -50 61 0 4 -7 8 -15 8 -8 0 -15 6 -15 13 0 6 -16
27 -35 46 -19 18 -46 57 -59 85 -37 78 -106 258 -106 276 0 8 -6 24 -13 35
-14 21 -55 137 -60 170 -2 11 -12 40 -24 65 -11 25 -26 61 -33 80 -8 19 -24
54 -37 77 -13 23 -23 51 -23 62 0 11 -5 23 -10 26 -5 3 -10 14 -10 25 0 10
-17 52 -38 94 -26 50 -34 76 -25 76 18 0 17 19 -2 26 -17 7 -47 98 -39 119 3
7 -2 24 -11 38 -9 14 -15 40 -14 58 1 19 0 45 -3 59 -3 14 -3 19 -1 13 7 -19
50 -16 59 5 4 9 8 21 8 26 2 16 26 18 26 3 0 -8 7 -17 15 -21 8 -3 15 -18 15
-33 1 -15 10 -39 21 -53 19 -22 22 -23 30 -7 16 29 30 20 24 -15 -6 -30 0 -39
57 -99 64 -66 113 -93 120 -64 2 10 8 12 17 5 12 -7 12 -12 3 -23 -13 -16 -4
-28 31 -40 9 -4 20 -15 24 -24 4 -10 19 -30 35 -46 21 -21 35 -26 56 -22 15 3
20 2 12 -1 -8 -4 -18 -12 -22 -18 -11 -16 -10 -48 2 -41 11 7 14 -8 4 -18 -15
-15 -1 -266 21 -367 8 -36 21 -123 29 -195 8 -71 22 -150 31 -175 9 -25 19
-56 22 -70 3 -14 11 -32 18 -40 8 -8 36 -61 65 -118 28 -56 61 -114 74 -130
12 -15 41 -57 64 -93 39 -61 48 -68 104 -89 48 -18 74 -21 117 -17 103 11 145
32 211 107 33 37 60 73 60 80 0 7 7 18 16 25 17 12 62 85 89 143 8 17 20 32
25 32 10 0 35 48 32 63 -1 4 2 7 8 7 5 0 10 12 10 26 0 20 4 25 16 20 13 -5
15 -2 11 13 -3 12 1 22 9 25 8 3 14 14 14 24 0 11 7 25 16 33 9 7 13 21 10 33
-3 11 -1 26 5 32 6 7 11 28 11 46 1 41 22 84 48 98 10 6 17 17 14 24 -3 8 2
28 10 45 9 16 16 41 16 54 0 13 11 55 25 93 14 38 25 77 25 87 0 20 54 73 111
108 21 13 39 29 39 35 0 6 18 26 40 45 22 19 40 39 40 45 0 6 9 19 21 30 12
10 27 31 35 46 16 32 31 35 49 12 10 -14 13 -13 28 10 10 14 24 26 32 26 18 0
20 21 3 38 -8 8 -8 15 2 26 22 27 6 46 -30 36 -39 -11 -75 -1 -42 11 12 5 22
17 22 27 0 15 5 18 25 14 34 -6 34 24 0 32 -20 5 -33 -3 -74 -44 -27 -27 -52
-50 -56 -50 -9 0 23 58 35 62 5 1 13 18 16 37 5 23 4 32 -4 27 -5 -3 -12 -1
-14 5 -6 18 -40 2 -88 -41 -24 -22 -49 -40 -55 -40 -17 0 -65 24 -65 33 0 4
-7 7 -16 7 -11 0 -14 6 -9 20 7 23 -5 26 -24 8 -10 -11 -16 -8 -31 12 -19 25
-19 25 1 28 11 2 26 -1 33 -7 15 -13 26 -5 26 19 0 12 -11 20 -32 24 -27 5
-36 2 -50 -15 -10 -12 -18 -26 -18 -33 0 -6 -13 -20 -30 -29 -16 -10 -30 -22
-30 -28 0 -11 4 -11 55 1 42 10 75 5 75 -10 0 -5 -7 -7 -15 -4 -31 12 -144
-16 -169 -41 -26 -26 -46 -32 -46 -15 0 6 9 19 20 30 24 24 26 40 5 40 -8 0
-23 -18 -34 -40 -19 -39 -19 -41 -1 -50 13 -7 28 -7 46 0 20 8 29 8 35 -1 11
-18 38 -3 50 28 l10 28 19 -25 c16 -22 17 -27 4 -41 -8 -8 -14 -20 -14 -26 0
-6 -14 -13 -32 -17 -21 -4 -28 -10 -22 -16 16 -16 86 11 100 38 l12 24 15 -31
c11 -21 12 -31 3 -34 -6 -3 0 -9 14 -15 14 -6 21 -11 15 -12 -5 -1 0 -5 12 -8
19 -6 20 -9 8 -25 -12 -17 -14 -17 -30 -1 -12 13 -19 14 -28 5 -8 -8 -8 -14
-2 -19 19 -13 35 -51 25 -57 -6 -3 -10 -14 -10 -24 0 -27 -36 -60 -60 -54 -13
3 -20 0 -21 -8 0 -8 -4 -5 -9 6 -5 11 -9 14 -9 7 -1 -7 7 -25 17 -39 9 -16 11
-24 4 -19 -15 9 -52 -32 -45 -51 3 -7 14 -13 24 -13 10 0 19 -5 19 -11 0 -7
-10 -9 -25 -7 -14 3 -28 1 -31 -3 -3 -5 4 -9 15 -9 24 0 28 -15 7 -23 -8 -3
-17 -19 -21 -35 -3 -17 -13 -33 -21 -36 -20 -8 -12 -61 13 -90 29 -33 12 -49
-33 -30 -29 12 -34 12 -34 0 0 -7 9 -16 20 -19 14 -4 18 -10 14 -22 -4 -10 -1
-21 6 -25 21 -13 1 -31 -27 -24 -21 6 -25 4 -20 -8 3 -9 1 -20 -5 -26 -10 -10
6 -49 27 -64 6 -5 5 -8 -4 -8 -8 0 -11 -6 -7 -15 3 -9 -1 -18 -10 -22 -8 -3
-13 -12 -10 -19 3 -8 0 -14 -5 -14 -7 0 -9 -11 -6 -26 5 -27 -23 -68 -31 -45
-2 7 -10 0 -18 -14 -8 -15 -11 -31 -8 -37 3 -5 -4 -12 -16 -15 -15 -4 -20 -11
-17 -24 6 -23 -28 -79 -48 -79 -11 0 -15 -8 -13 -27 2 -22 -2 -28 -22 -33 -20
-4 -26 -12 -28 -37 -3 -25 1 -33 13 -33 23 0 12 -25 -11 -25 -10 -1 -38 -20
-62 -44 -37 -38 -45 -42 -75 -36 -17 4 -39 16 -48 28 -13 16 -24 19 -51 14
-28 -4 -37 -1 -47 15 -11 18 -11 22 3 30 8 5 13 15 9 23 -3 9 6 27 21 42 19
18 23 29 16 38 -6 7 -8 20 -4 29 7 19 -3 21 -19 4 -17 -18 -45 -78 -52 -110
-3 -18 -12 -28 -23 -28 -10 0 -23 -5 -29 -11 -12 -12 -33 -4 -33 13 0 6 9 8
20 5 16 -4 20 0 20 20 0 16 -7 27 -19 30 -23 6 -70 100 -63 126 1 4 -5 7 -14
5 -19 -4 -82 107 -76 134 2 11 -3 18 -12 18 -10 0 -16 9 -16 23 0 12 -9 28
-20 35 -12 7 -18 17 -15 22 4 6 -3 24 -15 40 -12 17 -24 51 -26 78 -3 26 -6
63 -8 82 -2 19 -9 60 -15 90 -6 30 -13 62 -14 70 -2 8 -8 26 -14 40 -14 35
-27 213 -14 206 5 -4 13 -1 16 5 4 6 -2 13 -14 16 -23 6 -28 27 -10 39 6 3 16
0 21 -7 6 -9 7 2 3 33 -5 40 -3 49 16 67 18 16 20 24 11 33 -8 8 -9 15 -1 25
14 16 45 17 54 3 6 -10 32 -9 74 1 9 3 18 -9 26 -34 6 -21 15 -39 20 -40 16
-3 18 45 3 54 -7 5 -13 12 -14 16 0 4 -3 15 -6 23 -4 8 -8 25 -11 37 -4 19 -2
21 13 13 10 -6 22 -19 25 -30 8 -26 30 -26 48 0 8 11 17 17 20 13 4 -3 7 1 7
9 0 14 5 15 44 3 30 -9 47 -10 54 -3 7 7 24 -1 55 -26 24 -20 51 -36 60 -36 9
0 17 -10 19 -22 3 -26 21 -27 24 -2 2 9 8 20 14 24 6 4 8 14 4 23 -7 20 -4 20
32 7 19 -8 37 -8 57 0 31 11 51 5 29 -9 -10 -6 -10 -11 2 -21 21 -17 46 -6 46
21 0 12 8 23 20 26 11 3 20 9 20 14 0 5 7 6 16 2 11 -4 22 1 30 12 19 26 17
38 -5 32 -10 -2 -26 0 -36 6 -17 9 -17 12 9 32 32 26 27 60 -8 49 -11 -3 -25
-7 -31 -8 -5 0 -14 -10 -20 -20 -16 -30 -35 -31 -35 -2 0 26 -13 32 -45 20
-14 -6 -14 -8 1 -25 10 -11 12 -19 6 -19 -7 0 -12 -9 -12 -20 0 -11 -7 -23
-15 -27 -22 -8 -28 2 -16 26 9 16 7 24 -11 40 -11 11 -37 26 -56 32 -19 6 -45
23 -58 38 -26 31 -43 22 -24 -13 16 -32 6 -61 -18 -51 -9 4 -36 9 -60 10 -35
2 -45 -2 -54 -19 -6 -12 -11 -22 -10 -23 8 -12 -1 -33 -13 -33 -18 0 -20 31
-3 48 9 9 9 15 0 24 -18 18 -14 38 8 38 21 0 27 15 10 25 -6 4 -18 1 -27 -6
-13 -11 -17 -10 -28 4 -15 21 -25 22 -25 2 0 -8 5 -15 10 -15 6 0 10 -4 10
-10 0 -5 -11 -10 -25 -10 -25 0 -33 -14 -15 -25 15 -9 12 -25 -5 -25 -8 0 -15
9 -15 19 0 21 -48 61 -74 61 -9 0 -16 4 -16 8 0 5 -11 14 -25 20 -19 9 -25 9
-25 -1 0 -15 39 -50 59 -53 21 -4 33 -20 29 -39 -3 -15 -6 -15 -30 4 -27 22
-45 14 -34 -14 7 -20 3 -19 -40 10 -21 14 -44 23 -52 20 -15 -5 -42 7 -64 28
-12 12 -68 32 -68 24 0 -9 42 -82 56 -98 25 -27 12 -33 -19 -8 -15 11 -27 31
-27 43 0 16 -14 32 -47 53 -54 36 -72 34 -28 -2 34 -26 30 -39 -8 -30 -21 6
-27 15 -32 48 -8 47 -21 67 -42 67 -10 0 -11 -4 -3 -19 14 -27 13 -29 -14 -24
-22 5 -79 53 -62 53 4 0 2 9 -4 21 -7 11 -18 18 -25 15 -8 -3 -17 -1 -20 4 -9
15 -25 12 -25 -5 0 -8 5 -15 10 -15 6 0 14 -10 19 -22 11 -29 -17 -50 -31 -24
-6 11 -16 15 -29 11 -14 -5 -17 -3 -13 9 3 9 10 16 15 16 5 0 9 5 9 10 0 6 -7
10 -15 10 -18 0 -20 17 -3 22 10 4 10 10 1 31 -10 22 -10 28 2 34 19 11 9 54
-11 46 -8 -3 -14 -11 -14 -19 0 -18 -18 -18 -36 1 -21 21 -37 19 -29 -4 3 -11
-6 -44 -21 -77 -14 -33 -27 -68 -28 -78 -2 -30 -26 -32 -26 -2 0 13 -4 27 -9
31 -6 3 -4 17 4 32 8 15 12 37 9 49 -4 14 0 23 10 27 22 9 20 22 -7 36 -18 10
-22 21 -24 69 -1 31 -4 74 -7 94 -5 30 -3 36 8 32 8 -3 17 -1 20 5 4 6 -5 13
-20 17 -19 5 -22 9 -12 15 10 7 9 9 -4 9 -14 0 -18 8 -18 35 0 19 5 35 10 35
6 0 10 7 10 15 0 8 -4 15 -10 15 -5 0 -10 9 -10 21 0 14 5 19 14 16 21 -8 25
13 8 43 -18 32 -1 86 24 76 12 -4 15 -2 11 9 -4 8 -2 17 3 20 16 10 11 25 -7
25 -10 0 -26 -15 -36 -32 l-19 -32 -17 23 c-12 16 -21 20 -25 12 -13 -20 -28
-12 -21 12 4 17 2 16 -10 -6 -9 -16 -14 -35 -11 -43 3 -8 1 -14 -4 -14 -6 0
-10 3 -11 8 -4 42 -19 69 -19 34 0 -40 24 -112 37 -112 7 0 13 -5 13 -10 0 -6
-12 -9 -27 -7 -22 3 -29 11 -36 38 -16 63 -19 107 -8 113 16 10 14 71 -3 85
-18 15 -23 2 -32 -78 -3 -34 -10 -61 -15 -61 -12 0 -15 63 -4 84 7 12 7 20 0
22 -11 4 -13 113 -2 130 3 6 -3 18 -14 27 -15 13 -19 28 -17 57 1 22 5 40 9
40 9 0 33 59 26 66 -3 3 -15 -13 -27 -35 -11 -23 -24 -39 -29 -37 -9 6 -8 66
1 82 4 6 6 29 5 52 -2 23 0 42 4 42 3 0 6 7 6 15 0 8 -9 15 -19 15 -10 0 -18
7 -18 15 0 8 5 15 11 15 6 0 17 -7 25 -15 19 -19 35 -20 28 -1 -4 12 3 28 46
99 19 31 -1 18 -45 -29 -41 -45 -43 -45 -38 -18 3 16 9 34 13 39 4 6 10 23 14
39 12 47 58 106 84 106 13 0 32 5 43 10 37 20 34 -17 -5 -60 -20 -22 -36 -42
-36 -44 0 -12 29 3 55 27 18 16 33 23 39 17 9 -9 37 20 49 52 3 9 24 28 46 42
32 21 55 26 121 29 58 2 85 7 96 19 16 15 13 16 -27 11 -24 -2 -57 -9 -72 -13
-35 -11 -84 -2 -91 16 -3 8 -15 14 -26 14 -11 0 -20 5 -20 10 0 6 -6 10 -14
10 -17 0 -29 27 -16 35 6 3 9 23 8 44 -2 56 6 62 52 40 22 -11 40 -24 40 -30
0 -6 11 -8 29 -4 32 7 54 -12 30 -26 -36 -20 -50 -36 -44 -49 6 -18 54 -42 67
-34 13 8 -2 26 -18 20 -9 -3 -14 2 -14 14 0 14 7 20 23 21 61 2 117 33 117 65
0 21 41 39 51 23 6 -11 12 -10 27 4 10 9 24 17 30 17 7 0 30 11 52 25 22 14
46 25 54 25 30 0 22 34 -14 52 -42 22 -64 23 -56 3 6 -17 -29 -22 -39 -5 -4 7
-12 7 -25 0 -26 -14 -30 -13 -30 9 0 28 23 42 79 47 66 6 124 31 117 49 -7 18
12 31 26 17 8 -8 17 -8 31 -1 13 8 22 8 30 0 8 -8 8 -11 -1 -11 -7 0 -12 -5
-12 -10 0 -6 6 -10 13 -8 6 1 22 -3 35 -10 18 -11 20 -16 12 -32 -6 -11 -17
-20 -25 -20 -7 0 -15 -4 -17 -8 -1 -4 -20 -21 -40 -36 -52 -39 -52 -66 0 -35
20 13 49 36 64 51 15 16 31 28 36 28 11 0 47 41 55 61 3 9 20 24 38 33 40 20
43 20 35 1 -4 -11 1 -15 19 -15 24 0 24 1 7 19 -28 32 -39 46 -52 71 -17 32
-74 90 -88 90 -6 0 -19 11 -27 24 -9 13 -29 30 -46 36 -17 7 -32 23 -35 37 -5
17 -11 22 -24 18 -9 -3 -22 0 -28 7 -8 10 -4 16 14 25 19 9 24 8 24 -3 0 -8 7
-14 15 -14 8 0 15 -4 15 -9 0 -5 8 -7 18 -4 13 3 25 -5 37 -24 10 -15 27 -34
37 -41 10 -7 18 -19 18 -27 0 -18 110 -79 121 -68 6 6 1 17 -11 28 -11 10 -20
25 -20 33 0 9 -2 13 -6 10 -7 -7 -74 56 -74 70 0 6 -12 28 -26 49 l-26 38 4
-37 c2 -21 1 -38 -2 -38 -3 0 -21 11 -40 25 -19 14 -39 25 -44 25 -20 1 -76
60 -76 80 0 15 -7 20 -25 20 -15 0 -40 7 -57 16 -17 9 -39 13 -49 11 -22 -6
-89 10 -103 24 -6 6 -6 13 2 21 9 9 13 8 17 -3 4 -10 18 -14 45 -13 22 1 38
-1 36 -5 -2 -3 17 -7 42 -9 25 -1 52 -7 59 -14 10 -8 18 -7 31 4 9 9 24 18 32
20 17 6 -53 43 -100 53 -17 4 -30 11 -30 16 0 5 -15 8 -32 7 -18 -1 -49 2 -68
6 -32 8 -34 7 -20 -9 13 -15 12 -19 -4 -31 -22 -16 -38 -10 -30 11 5 12 2 12
-24 0 -16 -9 -35 -22 -42 -30 -10 -13 -9 -15 11 -15 13 0 31 -5 39 -10 13 -9
10 -14 -15 -36 -16 -13 -45 -38 -63 -54 -19 -17 -44 -30 -56 -30 -15 0 -28
-10 -37 -27 -8 -16 -24 -39 -36 -53 -13 -14 -23 -28 -23 -32 0 -5 -4 -8 -10
-8 -5 0 -10 9 -10 20 0 11 -4 20 -10 20 -5 0 -10 -8 -10 -17 0 -10 -7 -31 -15
-47 -9 -16 -13 -31 -11 -34 3 -2 -1 -17 -9 -33 -8 -15 -15 -37 -15 -47 0 -11
-9 -30 -20 -43 -17 -21 -21 -22 -29 -9 -7 10 -7 16 -1 18 6 2 10 14 10 27 0
18 -4 22 -20 18 -11 -3 -20 0 -20 5 0 13 35 34 42 26 3 -2 11 2 18 11 10 12
10 18 1 29 -9 11 -9 20 -2 34 6 11 7 23 3 27 -4 3 -8 11 -8 16 -1 5 -2 15 -3
22 -1 7 -6 5 -12 -6 -5 -9 -7 -21 -4 -27 6 -10 -22 -60 -34 -60 -8 0 -11 36
-13 155 -1 85 2 106 20 138 11 21 18 45 16 52 -3 7 -1 16 5 20 17 10 13 33 -6
38 -15 4 -15 6 5 12 12 4 22 14 22 22 0 9 -6 13 -15 9 -10 -4 -15 1 -15 15 0
32 20 61 36 55 19 -7 53 10 76 38 10 12 28 31 40 44 12 12 18 22 13 22 -11 1
30 24 105 60 45 21 90 23 165 5 l30 -8 -29 32 c-27 29 -28 31 -9 31 11 0 26
-7 33 -15 14 -17 40 -20 40 -5 0 6 -4 10 -8 10 -5 0 -14 12 -21 26 -10 23 -9
26 9 31 15 4 20 14 20 36 l0 30 26 -23 c20 -20 27 -22 34 -11 4 8 6 24 4 36
-6 34 21 38 55 10 16 -14 40 -25 54 -25 23 0 25 3 18 28 -9 37 -128 101 -187
102 -28 0 -47 6 -60 21 -17 19 -19 19 -24 3 -4 -12 -20 -19 -50 -21 -23 -2
-54 -12 -68 -21 -14 -9 -41 -17 -59 -17 -28 0 -33 3 -29 18 2 9 0 17 -5 17 -5
0 -9 7 -9 15 0 8 -3 15 -6 15 -12 0 -64 -55 -64 -67 0 -7 -4 -13 -9 -13 -5 0
-13 -10 -17 -22 -3 -13 -14 -32 -23 -42 -12 -14 -13 -20 -3 -23 16 -6 15 -23
-2 -23 -8 0 -16 -16 -20 -40 -3 -22 -8 -40 -10 -40 -3 0 -11 -3 -20 -6 -20 -8
-22 26 -4 59 6 12 13 31 14 42 4 39 32 98 54 115 16 12 19 19 11 24 -16 10 7
39 26 32 7 -3 13 -1 13 4 0 13 104 90 122 90 9 0 21 7 28 15 10 12 9 16 -4 21
-18 7 -97 -31 -153 -74 -18 -13 -36 -21 -42 -18 -5 3 -11 1 -13 -6 -2 -6 -10
-8 -16 -4 -17 10 -15 26 3 26 9 0 15 6 14 13 -5 32 59 127 87 127 8 0 14 6 14
13 0 6 16 29 35 49 19 20 35 41 35 46 0 10 46 51 96 86 38 27 15 32 -38 8 -71
-31 -297 -221 -298 -249 0 -7 -4 -13 -10 -13 -20 0 -9 29 38 96 83 122 126
171 160 183 18 7 56 35 83 62 28 28 75 66 105 86 30 20 54 40 54 44 0 15 11
20 -169 -83 -42 -24 -54 -20 -36 12 8 14 17 32 21 40 9 19 56 59 70 60 5 0 23
14 39 30 16 17 36 30 44 30 21 1 71 39 52 40 -25 0 -104 -41 -172 -91 -63 -46
-132 -119 -194 -204 -39 -53 -75 -90 -75 -77 0 6 5 14 10 17 6 3 10 13 10 22
0 22 70 132 92 144 10 5 24 24 32 42 7 18 36 52 63 77 61 55 209 162 243 177
50 21 85 38 90 44 3 3 27 14 53 24 37 14 45 20 33 27 -10 6 -25 3 -42 -9 -27
-17 -27 -17 -19 7 4 14 14 29 21 33 8 4 14 12 14 17 0 17 -25 11 -48 -10 -36
-34 -47 -19 -13 17 11 12 17 23 14 27 -3 3 7 10 23 16 16 6 52 22 79 37 28 14
60 26 73 25 24 -2 26 1 13 26 -12 23 10 53 39 55 13 1 26 11 31 26 12 30 5 38
-16 17 -9 -9 -22 -16 -28 -15 -8 0 -9 2 -1 5 6 3 9 16 6 30 -5 26 -4 26 37 19
28 -4 41 -3 41 4 0 16 -50 33 -77 26 -19 -4 -24 0 -31 27 -12 43 -6 51 30 44
24 -5 30 -2 38 19 7 17 14 23 26 18 18 -7 17 4 -2 65 -6 20 -3 23 12 21 24 -4
64 10 64 21 0 5 -9 11 -19 15 -38 12 -36 62 3 81 17 8 25 7 34 -3 17 -17 32
-17 32 1 0 22 31 28 56 11 13 -8 34 -15 46 -15 18 0 20 2 8 10 -12 7 -12 12
-2 22 10 10 19 10 44 -5 23 -13 34 -15 44 -6 10 9 17 9 28 0 10 -9 16 -8 26 4
18 22 27 19 59 -18 26 -29 34 -32 70 -29 39 4 40 3 46 -32 8 -42 14 -47 43
-39 33 8 29 52 -8 86 -16 16 -36 27 -42 24 -18 -5 -36 22 -30 45 5 19 27 24
37 8 3 -5 24 -10 46 -10 27 0 46 -7 60 -21 l22 -22 -39 8 -39 7 19 -21 c23
-25 49 -27 70 -5 11 10 13 21 7 31 -4 9 -5 32 0 51 4 20 6 39 3 43 -2 4 5 11
16 14 14 5 27 0 38 -12 9 -11 25 -22 35 -26 14 -5 16 -11 8 -26 -12 -21 2 -32
26 -24 10 4 10 10 1 26 -7 12 -11 27 -9 32 4 11 9 46 14 111 2 22 8 47 12 55
5 8 10 20 11 27 5 31 15 42 39 42 25 0 85 50 85 70 0 25 -21 16 -34 -15 -15
-36 -36 -45 -54 -22 -14 16 -5 53 20 90 11 15 18 37 16 50 -3 21 -4 20 -20 -8
-17 -30 -17 -30 -17 -5 0 33 22 63 36 49 14 -14 33 -3 33 19 0 10 9 23 20 30
11 7 20 18 20 26 0 7 9 21 20 31 10 9 18 20 17 24 -4 16 26 51 43 51 11 0 34
14 52 31 28 26 30 30 11 26 -33 -7 -18 16 25 38 20 11 77 43 127 72 65 39 100
53 130 54 22 0 63 6 90 13 52 13 162 10 180 -5z m-1755 7 c0 -2 -37 -25 -82
-51 -46 -26 -104 -68 -130 -93 -47 -45 -69 -52 -50 -15 26 48 195 163 240 163
12 0 22 -2 22 -4z m1931 -35 c35 -28 20 -32 -20 -4 -19 13 -27 23 -19 23 9 0
26 -9 39 -19z m73 -46 c-6 -16 -34 -21 -34 -7 0 13 11 22 26 22 8 0 11 -6 8
-15z m486 -75 c0 -5 -7 -7 -15 -4 -8 4 -15 8 -15 10 0 2 7 4 15 4 8 0 15 -4
15 -10z m55 -10 c-3 -5 -13 -6 -21 -3 -12 4 -13 8 -3 14 15 9 32 2 24 -11z
m-2500 0 c3 -5 -1 -10 -9 -10 -9 0 -16 5 -16 10 0 6 4 10 9 10 6 0 13 -4 16
-10z m1080 -25 c-31 -26 -55 -32 -55 -15 0 10 55 38 75 39 6 0 -3 -11 -20 -24z
m1039 6 c4 -5 0 -11 -6 -14 -18 -5 -48 3 -48 14 0 12 47 12 54 0z m453 -2 c15
-6 51 -26 80 -45 28 -19 56 -34 61 -34 5 0 20 -9 34 -19 13 -11 43 -29 66 -41
23 -12 42 -26 42 -31 0 -9 -24 -2 -55 17 -17 10 -54 21 -103 30 -8 1 -22 10
-33 19 -10 10 -47 32 -81 50 -84 44 -93 85 -11 54z m-1637 -9 c0 -5 -4 -10
-10 -10 -5 0 -10 5 -10 10 0 6 5 10 10 10 6 0 10 -4 10 -10z m1253 3 c-7 -2
-21 -2 -30 0 -10 3 -4 5 12 5 17 0 24 -2 18 -5z m-1223 -37 c0 -2 -8 -10 -17
-17 -16 -13 -17 -12 -4 4 13 16 21 21 21 13z m1320 -6 c0 -5 -7 -7 -15 -4 -8
4 -15 8 -15 10 0 2 7 4 15 4 8 0 15 -4 15 -10z m2695 -35 l6 -30 -15 25 c-17
28 -22 60 -7 45 5 -6 12 -23 16 -40z m-3965 -23 c0 -5 -9 -17 -20 -27 -23 -21
-26 -14 -8 15 13 20 28 27 28 12z m570 0 c0 -13 -12 -22 -22 -16 -10 6 -1 24
13 24 5 0 9 -4 9 -8z m225 -62 c-3 -5 -13 -10 -21 -10 -8 0 -12 5 -9 10 3 6
13 10 21 10 8 0 12 -4 9 -10z m145 0 c0 -5 -11 -10 -24 -10 -14 0 -28 5 -31
10 -4 6 7 10 24 10 17 0 31 -4 31 -10z m506 -11 c8 -14 -10 -11 -32 6 -18 13
-18 14 4 8 12 -3 25 -9 28 -14z m-711 1 c-3 -5 -24 -15 -45 -21 -22 -7 -40
-16 -40 -21 0 -4 -11 -8 -25 -8 -30 0 -33 16 -5 25 11 3 20 12 20 19 0 9 16
14 50 15 30 0 49 -3 45 -9z m-250 -20 c-3 -5 -16 -15 -28 -21 -21 -10 -21 -9
2 10 25 23 36 27 26 11z m1032 -16 c24 -9 43 -20 43 -25 0 -4 3 -16 7 -26 6
-14 0 -13 -28 9 -19 14 -46 28 -59 30 -25 3 -41 28 -19 28 7 0 33 -7 56 -16z
m403 -14 c0 -5 -2 -10 -4 -10 -3 0 -8 5 -11 10 -3 6 -1 10 4 10 6 0 11 -4 11
-10z m-1839 -27 c-8 -15 -10 -15 -11 -2 0 17 10 32 18 25 2 -3 -1 -13 -7 -23z
m339 7 c0 -5 -5 -10 -11 -10 -5 0 -7 5 -4 10 3 6 8 10 11 10 2 0 4 -4 4 -10z
m1565 -40 c10 -11 16 -20 13 -20 -3 0 -13 9 -23 20 -10 11 -16 20 -13 20 3 0
13 -9 23 -20z m-346 -45 c26 -29 41 -54 41 -71 0 -23 -5 -20 -43 32 -55 76
-60 84 -49 84 5 0 28 -20 51 -45z m-2034 5 c3 -5 2 -10 -4 -10 -5 0 -13 5 -16
10 -3 6 -2 10 4 10 5 0 13 -4 16 -10z m674 -42 c-13 -18 -25 -26 -27 -19 -4
13 25 51 40 51 5 0 -1 -14 -13 -32z m-602 -3 c14 -31 6 -31 -32 0 l-30 25 25
0 c17 0 29 -8 37 -25z m1377 16 c7 -11 -14 -20 -31 -13 -7 2 -13 8 -13 13 0
12 37 12 44 0z m1031 -39 c-3 -3 -16 5 -28 17 l-22 23 28 -17 c15 -10 25 -20
22 -23z m-1480 9 c3 -5 1 -12 -5 -16 -5 -3 -10 1 -10 9 0 18 6 21 15 7z m-945
-30 c0 -5 -6 -14 -14 -20 -12 -10 -13 -8 -9 8 5 21 23 30 23 12z m160 -70 c0
-10 -7 -24 -15 -31 -9 -7 -15 -25 -14 -39 4 -57 -1 -91 -15 -91 -8 0 -16 7
-20 15 -3 8 -12 15 -21 15 -8 0 -15 7 -15 16 0 14 3 14 16 3 13 -10 17 -10 25
2 5 8 9 24 9 36 0 12 5 25 10 28 6 3 10 19 10 36 0 19 5 29 15 29 8 0 15 -8
15 -19z m-1162 -29 c2 -7 -2 -10 -12 -6 -9 3 -16 11 -16 16 0 13 23 5 28 -10z
m942 -2 c0 -5 -4 -10 -9 -10 -6 0 -13 5 -16 10 -3 6 1 10 9 10 9 0 16 -4 16
-10z m780 1 c0 -5 -7 -12 -16 -15 -14 -5 -15 -4 -4 9 14 17 20 19 20 6z m-670
-46 c10 -12 10 -15 -4 -15 -9 0 -16 7 -16 15 0 8 2 15 4 15 2 0 9 -7 16 -15z
m1864 -11 c31 -12 16 -22 -29 -21 -39 2 -43 4 -28 15 19 13 34 15 57 6z
m-2395 -18 c18 -22 -3 -28 -38 -10 -17 8 -31 17 -31 20 0 11 59 2 69 -10z
m237 -13 c-10 -10 -19 5 -10 18 6 11 8 11 12 0 2 -7 1 -15 -2 -18z m2336 5 c9
7 19 8 28 2 8 -6 25 -10 38 -10 37 0 25 -18 -19 -25 -31 -5 -45 -3 -60 11 -10
9 -19 22 -19 28 0 6 4 5 9 -3 7 -11 13 -12 23 -3z m-2470 -20 c-12 -12 -35 -1
-27 12 3 5 13 6 21 3 10 -4 12 -9 6 -15z m353 13 c3 -5 1 -12 -5 -16 -5 -3
-10 1 -10 9 0 18 6 21 15 7z m-105 -52 c0 -11 -4 -17 -10 -14 -5 3 -10 15 -10
26 0 11 5 17 10 14 6 -3 10 -15 10 -26z m2040 12 c0 -13 55 -30 77 -25 18 5
63 -20 53 -29 -9 -9 -64 -11 -107 -3 -30 5 -43 13 -47 28 -3 12 -3 25 0 30 7
11 24 10 24 -1z m-2200 -14 c0 -14 -20 -37 -32 -37 -12 0 -10 24 4 38 16 16
28 15 28 -1z m-65 -8 c11 -17 2 -18 -25 -4 -24 14 -24 14 -3 15 12 0 25 -5 28
-11z m123 -31 c-6 -18 -28 -21 -28 -4 0 9 7 16 16 16 9 0 14 -5 12 -12z m2068
-29 c3 -6 1 -15 -7 -19 -16 -10 -52 7 -44 21 8 13 42 11 51 -2z m85 -5 c17 -8
29 -17 27 -20 -9 -9 -67 9 -72 22 -7 18 8 18 45 -2z m445 -5 c8 -14 -20 -10
-41 5 -18 13 -18 14 8 9 15 -3 30 -9 33 -14z m-3045 -22 c-10 -9 -11 -8 -5 6
3 10 9 15 12 12 3 -3 0 -11 -7 -18z m114 13 c8 -13 -5 -13 -25 0 -13 8 -13 10
2 10 9 0 20 -4 23 -10z m2651 -5 c16 -8 49 -15 74 -15 54 0 144 -32 148 -53 3
-13 -2 -13 -40 0 -73 26 -141 43 -198 49 -59 6 -70 10 -70 25 0 14 54 11 86
-6z m-2726 -65 c-17 -58 -35 -67 -42 -20 -3 19 0 30 8 30 6 0 15 7 18 16 11
28 25 5 16 -26z m3035 30 c3 -5 -1 -10 -9 -10 -8 0 -18 5 -21 10 -3 6 1 10 9
10 8 0 18 -4 21 -10z m-14 -57 c5 -28 4 -63 -2 -63 -4 0 -12 7 -19 15 -7 8 -9
15 -4 15 4 0 3 5 -4 12 -7 7 -12 16 -12 20 0 10 40 11 41 1z m-3146 -43 c3 -5
1 -10 -4 -10 -6 0 -11 5 -11 10 0 6 2 10 4 10 3 0 8 -4 11 -10z m3205 -20 c13
-8 13 -10 -2 -10 -9 0 -20 5 -23 10 -8 13 5 13 25 0z m-74 -35 c19 -14 19 -14
-2 -15 -12 0 -24 7 -28 15 -7 19 5 19 30 0z m208 -24 c59 -29 134 -61 142 -61
14 0 0 19 -16 23 -11 3 -20 12 -20 21 0 23 6 21 61 -26 47 -39 97 -105 92
-120 -2 -4 21 -27 50 -52 45 -40 49 -46 28 -46 -13 0 -45 18 -71 40 -26 22
-55 40 -63 40 -8 0 -17 9 -20 20 -3 11 -12 20 -21 20 -15 0 -39 16 -78 53 -10
9 -22 17 -26 17 -5 0 -17 8 -26 19 -9 10 -29 21 -44 25 -23 5 -74 56 -56 56 4
0 34 -13 68 -29z m-144 -11 c0 -5 -2 -10 -4 -10 -3 0 -8 5 -11 10 -3 6 -1 10
4 10 6 0 11 -4 11 -10z m-3180 -108 c0 -13 -12 -22 -22 -16 -10 6 -1 24 13 24
5 0 9 -4 9 -8z m-154 -21 c14 -11 50 -22 84 -26 43 -5 63 -12 70 -25 14 -26
13 -30 -10 -30 -11 0 -20 5 -20 11 0 7 -10 9 -25 5 -17 -4 -27 -2 -31 8 -3 7
-23 21 -45 31 -21 10 -39 22 -39 26 0 4 -8 10 -17 12 -10 3 -12 5 -5 6 8 0 25
-8 38 -18z m3802 -30 c3 -8 -1 -12 -9 -9 -7 2 -15 10 -17 17 -3 8 1 12 9 9 7
-2 15 -10 17 -17z m39 -123 c-3 -8 -6 -5 -6 6 -1 11 2 17 5 13 3 -3 4 -12 1
-19z m-4194 -174 c-15 -14 -23 -23 -16 -20 25 13 21 -13 -7 -50 -17 -22 -40
-52 -53 -68 -12 -17 -37 -47 -54 -69 -18 -21 -33 -42 -33 -47 0 -4 -12 -23
-27 -43 -16 -19 -33 -43 -39 -53 -10 -16 -13 -17 -28 -5 -13 11 -19 11 -31 1
-8 -7 -12 -16 -9 -21 3 -5 1 -9 -4 -9 -16 0 -32 -46 -19 -59 8 -8 8 -11 0 -11
-46 0 -58 40 -17 59 30 13 27 35 -4 39 -15 2 -22 -2 -22 -12 0 -13 -28 -36
-45 -36 -3 0 -3 12 -1 26 5 28 34 66 45 60 3 -2 15 2 26 10 19 14 19 14 -5 12
-17 -2 -25 3 -28 15 -4 20 15 38 63 62 75 37 107 63 125 100 23 50 66 98 82
93 7 -3 21 4 32 14 11 10 30 18 43 18 13 0 23 5 23 10 0 6 7 10 16 10 10 0 7
-8 -13 -26z m280 -8 c22 -17 22 -28 -3 -44 -28 -17 -38 -9 -32 28 5 33 9 35
35 16z m-473 -86 c0 -5 -7 -10 -16 -10 -8 0 -12 5 -9 10 3 6 10 10 16 10 5 0
9 -4 9 -10z m4550 -36 c0 -8 -4 -12 -10 -9 -5 3 -10 10 -10 16 0 5 5 9 10 9 6
0 10 -7 10 -16z m-4765 -182 c-3 -3 -11 0 -18 7 -9 10 -8 11 6 5 10 -3 15 -9
12 -12z m-68 -44 c-3 -8 -6 -5 -6 6 -1 11 2 17 5 13 3 -3 4 -12 1 -19z m8 -27
c3 -5 1 -12 -4 -15 -5 -3 -11 1 -15 9 -6 16 9 21 19 6z m26 -34 c-10 -9 -11
-8 -5 6 3 10 9 15 12 12 3 -3 0 -11 -7 -18z m-21 -37 c0 -5 -7 -10 -16 -10 -8
0 -12 5 -9 10 3 6 10 10 16 10 5 0 9 -4 9 -10z m-306 -301 c25 5 48 5 51 1 8
-13 -69 -26 -115 -19 -25 4 -54 5 -65 3 -18 -5 -17 -3 4 14 21 17 27 18 51 6
20 -10 40 -12 74 -5z m5224 -7 c2 -7 -3 -12 -12 -12 -9 0 -16 7 -16 16 0 17
22 14 28 -4z m-5440 -46 c-4 -19 -99 -96 -118 -96 -8 0 -21 4 -29 9 -11 7 -9
13 8 30 12 12 26 19 30 16 5 -2 14 2 21 10 7 8 23 15 37 15 13 0 26 7 29 15 8
19 27 20 22 1z m5540 -85 c22 -19 28 -31 15 -31 -16 1 -68 50 -53 50 8 -1 25
-9 38 -19z m-5714 -25 c-3 -9 2 -16 13 -18 14 -2 5 -15 -41 -61 -32 -31 -64
-57 -71 -57 -21 0 -5 47 21 61 13 7 24 18 24 24 0 7 9 20 20 30 10 9 19 20 18
24 -2 15 3 22 12 16 5 -3 7 -12 4 -19z m5901 -36 c10 -11 15 -20 11 -20 -14 0
-46 21 -46 30 0 16 16 11 35 -10z m-4935 1 c0 -5 -7 -11 -15 -15 -15 -5 -20 5
-8 17 9 10 23 9 23 -2z m-1070 -120 c0 -6 -4 -13 -10 -16 -5 -3 -10 1 -10 9 0
9 5 16 10 16 6 0 10 -4 10 -9z m5850 -1 c0 -5 -4 -10 -10 -10 -5 0 -10 5 -10
10 0 6 5 10 10 10 6 0 10 -4 10 -10z m-5060 -21 c0 -6 -13 -27 -30 -46 -16
-18 -30 -38 -30 -44 0 -6 -4 -7 -10 -4 -6 3 1 22 15 45 14 22 25 44 25 50 0 5
7 10 15 10 8 0 15 -5 15 -11z m5030 -28 c0 -10 7 -22 16 -25 9 -4 14 -9 10
-13 -8 -9 -46 27 -46 44 0 7 5 13 10 13 6 0 10 -9 10 -19z m70 9 c0 -5 -4 -10
-9 -10 -6 0 -13 5 -16 10 -3 6 1 10 9 10 9 0 16 -4 16 -10z m-5443 -70 c-6
-16 -15 -30 -19 -30 -12 0 -10 8 8 35 22 33 25 31 11 -5z m357 24 c17 -7 11
-30 -17 -59 -20 -20 -20 -20 -13 5 4 14 8 33 7 43 0 19 1 19 23 11z m-860 -19
c-6 -16 -24 -21 -24 -7 0 11 11 22 21 22 5 0 6 -7 3 -15z m5776 -15 c0 -5 -4
-10 -10 -10 -5 0 -10 5 -10 10 0 6 5 10 10 10 6 0 10 -4 10 -10z m195 -31 c12
-19 -5 -23 -22 -6 -16 16 -16 17 -1 17 9 0 20 -5 23 -11z m-5519 -68 c-9 -17
-21 -31 -26 -31 -19 0 -18 17 2 49 27 42 47 27 24 -18z m399 22 c-12 -32 -11
-72 2 -77 22 -9 14 -33 -23 -71 -25 -26 -39 -34 -46 -27 -8 8 -17 8 -30 1 -13
-7 -18 -6 -18 5 0 7 -8 17 -17 20 -14 6 -12 11 15 36 19 17 39 27 47 24 8 -4
15 -1 15 5 0 6 -4 11 -10 11 -21 0 -9 29 25 59 41 35 50 39 40 14z m4985 -10
c13 -12 5 -13 -58 -11 -53 2 -75 -1 -81 -11 -5 -7 -14 -10 -20 -7 -21 13 -11
23 29 30 22 3 40 10 40 15 0 14 72 1 90 -16z m160 2 c0 -8 -4 -15 -10 -15 -5
0 -7 7 -4 15 4 8 8 15 10 15 2 0 4 -7 4 -15z m160 -46 c0 -13 -47 19 -54 37
-4 11 3 9 24 -6 17 -12 30 -26 30 -31z m-5056 17 c-3 -8 -12 -17 -20 -20 -8
-3 -15 -16 -15 -28 -1 -19 -2 -20 -6 -4 -6 23 16 66 33 66 8 0 11 -6 8 -14z
m31 -47 c-10 -15 -25 -10 -19 6 4 8 10 12 15 9 5 -3 7 -10 4 -15z m24 -35
c-15 -18 -22 -13 -13 10 3 9 10 13 16 10 5 -3 4 -12 -3 -20z m4886 -4 c3 -5 1
-10 -4 -10 -6 0 -11 5 -11 10 0 6 2 10 4 10 3 0 8 -4 11 -10z m195 -10 c6 -11
7 -20 2 -20 -10 0 -32 21 -32 32 0 16 19 8 30 -12z m-5370 -29 c0 -11 -29 -35
-35 -29 -10 9 7 38 21 38 8 0 14 -4 14 -9z m5426 -48 c-7 -7 -26 7 -26 19 0 6
6 6 15 -2 9 -7 13 -15 11 -17z m-336 1 c0 -8 -4 -12 -10 -9 -5 3 -10 10 -10
16 0 5 5 9 10 9 6 0 10 -7 10 -16z m-5226 -9 c-4 -8 -8 -15 -10 -15 -2 0 -4 7
-4 15 0 8 4 15 10 15 5 0 7 -7 4 -15z m69 -12 c3 -5 -1 -14 -9 -21 -12 -11
-14 -9 -14 8 0 20 14 27 23 13z m5433 -34 c19 -11 34 -24 34 -27 0 -10 79 -49
113 -56 15 -4 27 -3 27 0 0 12 -35 33 -54 34 -15 0 -17 3 -9 11 15 15 45 -2
105 -57 30 -28 56 -44 73 -44 14 0 28 -6 31 -14 3 -8 15 -17 27 -20 30 -8 73
-43 65 -52 -12 -12 -138 49 -183 89 -46 40 -61 46 -51 22 8 -22 -6 -19 -49 11
-21 14 -48 27 -59 28 -12 1 -44 23 -71 49 -54 50 -53 60 1 26z m-5936 -25 c0
-14 -4 -23 -10 -19 -5 3 -10 15 -10 26 0 10 5 19 10 19 6 0 10 -12 10 -26z
m47 4 c-3 -8 -6 -5 -6 6 -1 11 2 17 5 13 3 -3 4 -12 1 -19z m5978 -8 c3 -5 2
-10 -4 -10 -5 0 -13 5 -16 10 -3 6 -2 10 4 10 5 0 13 -4 16 -10z m-5270 -20
c3 -5 1 -10 -4 -10 -6 0 -11 5 -11 10 0 6 2 10 4 10 3 0 8 -4 11 -10z m-205
-15 c0 -8 -34 -45 -42 -45 -12 0 -9 25 4 38 12 12 38 17 38 7z m-520 -61 c0
-8 -4 -12 -10 -9 -5 3 -10 13 -10 21 0 8 5 12 10 9 6 -3 10 -13 10 -21z m6015
-97 c15 -12 38 -32 52 -44 14 -13 30 -23 34 -23 5 0 9 -9 9 -20 0 -28 -16 -25
-43 7 -12 15 -39 45 -59 67 -54 55 -50 61 7 13z m-4665 3 c0 -5 -4 -10 -9 -10
-6 0 -13 5 -16 10 -3 6 1 10 9 10 9 0 16 -4 16 -10z m-111 -19 c9 -6 10 -11 2
-15 -15 -10 -53 3 -46 15 8 11 26 11 44 0z m161 -15 c0 -21 -59 -32 -77 -14
-12 13 -10 14 15 10 16 -2 33 1 36 7 10 16 26 14 26 -3z m4350 -6 c6 -11 7
-20 2 -20 -10 0 -32 21 -32 32 0 16 19 8 30 -12z m-5260 -19 c0 -6 -4 -13 -10
-16 -5 -3 -10 1 -10 9 0 9 5 16 10 16 6 0 10 -4 10 -9z m5506 -42 c15 2 44
-28 44 -44 0 -20 -16 -19 -39 4 -10 10 -24 20 -32 23 -8 3 -10 11 -5 23 5 15
9 16 15 6 5 -7 12 -12 17 -12z m-4639 -15 c2 -6 -20 -16 -50 -23 -40 -9 -65
-22 -90 -48 -69 -69 -72 -146 -8 -217 l26 -29 -50 7 c-27 3 -55 13 -61 21 -6
8 -16 15 -22 15 -7 0 -15 12 -18 28 -4 15 -12 34 -19 42 -7 8 -19 32 -26 53
-11 30 -11 42 -1 57 10 16 10 20 0 20 -37 1 107 83 156 90 55 7 159 -3 163
-16z m101 -58 c-2 -10 -7 -13 -17 -7 -8 6 -11 16 -7 27 8 21 30 4 24 -20z
m4706 8 c4 -10 1 -14 -6 -12 -15 5 -23 28 -10 28 5 0 13 -7 16 -16z m-5291
-26 c-4 -7 -6 -21 -5 -30 2 -10 -2 -18 -7 -18 -12 0 -15 43 -4 53 11 12 24 7
16 -5z m-410 -20 c-6 -7 -13 -25 -17 -40 -3 -16 -13 -28 -20 -28 -11 0 -8 12
11 46 14 25 28 43 31 40 2 -3 0 -11 -5 -18z m5223 -5 c-7 -7 -26 7 -26 19 0 6
6 6 15 -2 9 -7 13 -15 11 -17z m-4082 -48 c4 -11 -49 -135 -58 -135 -2 0 -12
8 -24 18 -18 16 -21 28 -19 98 l2 80 47 -24 c26 -13 49 -30 52 -37z m4560 -13
c10 -23 -30 5 -49 35 l-18 27 31 -24 c17 -14 33 -31 36 -38z m-4777 22 c3 -8
1 -20 -6 -27 -14 -14 -47 15 -37 32 10 16 36 13 43 -5z m-526 -26 c1 -13 0
-35 -1 -49 -2 -31 23 -45 41 -22 12 13 14 13 20 -4 7 -22 -9 -63 -26 -63 -7 0
-18 -15 -26 -32 -7 -18 -29 -50 -48 -70 -32 -33 -39 -37 -66 -30 -30 8 -30 9
-7 21 28 15 29 35 1 28 -16 -4 -18 -3 -9 8 7 8 9 19 5 25 -8 13 8 13 22 -1 8
-8 13 -3 18 20 4 17 12 31 19 31 8 0 12 24 14 71 1 39 4 75 8 80 10 18 34 9
35 -13z m5001 -24 c36 -20 72 -48 79 -61 8 -14 23 -29 35 -33 15 -6 22 -16 20
-34 -1 -30 -15 -32 -58 -10 -25 13 -29 20 -26 45 5 30 -6 40 -16 14 -8 -22
-36 -18 -36 5 0 13 -7 20 -19 20 -10 0 -21 9 -24 20 -3 11 -21 29 -41 41 -38
22 -39 44 -2 35 12 -3 52 -22 88 -42z m-5452 -19 c-7 -8 -16 -15 -21 -15 -14
0 -10 17 8 36 20 20 32 1 13 -21z m-490 -36 c0 -27 -4 -49 -10 -49 -5 0 -10
25 -10 56 0 34 4 53 10 49 6 -3 10 -28 10 -56z m1078 27 c6 -30 -15 -43 -33
-20 -8 10 -15 25 -15 32 0 21 44 10 48 -12z m-567 -59 c-10 -9 -11 -8 -5 6 3
10 9 15 12 12 3 -3 0 -11 -7 -18z m309 13 c0 -5 -4 -10 -10 -10 -5 0 -10 5
-10 10 0 6 5 10 10 10 6 0 10 -4 10 -10z m24 -40 c-6 -6 -15 -6 -24 0 -13 9
-13 11 0 20 18 11 39 -5 24 -20z m5336 -2 c0 -13 -23 -5 -28 10 -2 7 2 10 12
6 9 -3 16 -11 16 -16z m-4913 -80 c-3 -7 -5 -2 -5 12 0 14 2 19 5 13 2 -7 2
-19 0 -25z m5011 -93 c-3 -3 -9 2 -12 12 -6 14 -5 15 5 6 7 -7 10 -15 7 -18z
m-198 -65 c0 -5 -7 -7 -15 -4 -8 4 -15 8 -15 10 0 2 7 4 15 4 8 0 15 -4 15
-10z m-5310 -34 c0 -3 -4 -8 -10 -11 -5 -3 -10 -1 -10 4 0 6 5 11 10 11 6 0
10 -2 10 -4z m3 -50 c5 -13 -31 -56 -46 -56 -12 0 -7 21 11 45 20 28 28 31 35
11z m5635 -17 c25 -29 67 -109 57 -109 -2 0 -16 20 -31 45 -14 25 -30 45 -35
45 -5 0 -9 7 -9 15 0 8 -4 15 -10 15 -5 0 -10 5 -10 10 0 17 10 11 38 -21z
m-379 -3 c9 -10 7 -13 -11 -12 -12 0 -23 7 -26 14 -5 16 23 15 37 -2z m-5069
-19 c0 -7 -8 -17 -18 -24 -17 -10 -18 -8 -14 13 4 24 32 34 32 11z m-120 -6
c0 -14 -18 -23 -30 -16 -6 4 -8 11 -5 16 8 12 35 12 35 0z m-22 -60 c3 -8 -1
-12 -9 -9 -7 2 -15 10 -17 17 -3 8 1 12 9 9 7 -2 15 -10 17 -17z m5616 -77 c3
-8 2 -12 -4 -9 -6 3 -10 10 -10 16 0 14 7 11 14 -7z m221 -81 c3 -16 16 -64
30 -108 37 -124 37 -125 25 -140 -7 -9 -8 -15 0 -20 5 -3 9 -16 9 -28 -1 -17
-2 -18 -6 -4 -2 9 -8 15 -12 13 -11 -7 -4 -140 8 -144 6 -2 8 -16 4 -33 -4
-24 -2 -29 13 -29 16 0 16 -2 4 -9 -8 -6 -17 -8 -20 -6 -3 2 -6 -11 -6 -28 0
-42 -12 -73 -24 -61 -11 11 -37 158 -57 324 -21 178 -22 231 -5 258 8 12 11
22 8 22 -4 0 -4 5 -1 10 11 18 25 10 30 -17z m-6858 -5 c-3 -8 -6 -5 -6 6 -1
11 2 17 5 13 3 -3 4 -12 1 -19z m6703 6 c0 -8 -4 -12 -10 -9 -5 3 -10 10 -10
16 0 5 5 9 10 9 6 0 10 -7 10 -16z m61 -26 c1 -13 3 -42 4 -65 2 -24 -1 -43
-6 -43 -6 0 -7 -6 -3 -12 5 -9 2 -9 -9 1 -19 15 -24 91 -6 91 7 0 9 10 7 25
-3 14 -1 25 3 25 5 0 10 -10 10 -22z m-6231 -43 c0 -8 -2 -15 -4 -15 -2 0 -6
7 -10 15 -3 8 -1 15 4 15 6 0 10 -7 10 -15z m6107 -92 c-3 -3 -11 -2 -17 2 -9
6 -9 10 1 16 14 8 27 -7 16 -18z m118 -43 c3 -5 1 -10 -4 -10 -6 0 -11 5 -11
10 0 6 2 10 4 10 3 0 8 -4 11 -10z m-1690 -103 c1 -15 -5 -27 -11 -27 -15 0
-22 19 -16 43 7 26 27 15 27 -16z m1640 13 c3 -5 2 -10 -4 -10 -5 0 -13 5 -16
10 -3 6 -2 10 4 10 5 0 13 -4 16 -10z m56 -27 c0 -5 2 -26 5 -48 2 -22 2 -50
-1 -63 -8 -33 -28 -15 -21 18 3 16 1 42 -4 58 -4 17 -6 33 -2 36 8 8 22 7 23
-1z m-109 -78 c4 -17 1 -25 -8 -25 -8 0 -14 11 -14 25 0 14 4 25 9 25 5 0 11
-11 13 -25z m-1603 12 c-2 -1 -13 -9 -24 -17 -19 -14 -19 -14 -6 3 7 9 18 17
24 17 6 0 8 -1 6 -3z m1916 -17 c3 -5 1 -10 -4 -10 -6 0 -11 5 -11 10 0 6 2
10 4 10 3 0 8 -4 11 -10z m-2025 -9 c0 -6 -4 -13 -10 -16 -5 -3 -10 1 -10 9 0
9 5 16 10 16 6 0 10 -4 10 -9z m30 -36 c-7 -9 -15 -13 -18 -10 -3 2 1 11 8 20
7 9 15 13 18 10 3 -2 -1 -11 -8 -20z m1792 -37 c-7 -7 -12 -8 -12 -2 0 14 12
26 19 19 2 -3 -1 -11 -7 -17z m115 -160 c-3 -7 -5 -2 -5 12 0 14 2 19 5 13 2
-7 2 -19 0 -25z m-5737 -59 c0 -5 -7 -9 -15 -9 -15 0 -20 12 -9 23 8 8 24 -1
24 -14z m-184 -62 c3 -43 -16 -18 -22 29 -5 34 -4 36 7 19 7 -10 13 -32 15
-48z m5894 23 c0 -5 -4 -10 -10 -10 -5 0 -10 5 -10 10 0 6 5 10 10 10 6 0 10
-4 10 -10z m-6395 -60 c-3 -5 -13 -10 -21 -10 -8 0 -12 5 -9 10 3 6 13 10 21
10 8 0 12 -4 9 -10z m505 -50 c0 -5 -4 -10 -10 -10 -5 0 -10 5 -10 10 0 6 5
10 10 10 6 0 10 -4 10 -10z m4578 -34 c-12 -7 -25 -11 -27 -9 -8 6 34 31 42
26 5 -3 -2 -11 -15 -17z m-4563 -26 c-4 -14 -2 -20 9 -20 23 0 50 -109 34
-136 -4 -5 -5 -35 -3 -65 6 -74 6 -67 1 -129 -3 -30 -6 -62 -6 -70 -1 -8 -4
-22 -6 -30 -8 -23 -24 8 -24 47 0 17 -4 34 -8 37 -12 7 -8 78 6 104 12 20 11
22 -15 23 -21 0 -24 2 -10 7 15 7 16 10 3 27 -7 10 -12 25 -9 32 3 7 0 13 -6
13 -12 0 -5 44 11 70 8 12 8 12 4 -2 -4 -13 0 -18 15 -18 l21 0 -21 35 c-11
19 -18 41 -15 49 3 8 1 17 -5 21 -18 11 -12 25 10 25 16 0 19 -4 14 -20z
m-752 3 c-7 -2 -19 -2 -25 0 -7 3 -2 5 12 5 14 0 19 -2 13 -5z m77 -13 c0 -13
-20 -13 -40 0 -12 8 -9 10 13 10 15 0 27 -4 27 -10z m5458 -6 c2 -5 -11 -12
-28 -15 -40 -9 -50 -19 -19 -20 l24 0 -25 -11 c-25 -11 -108 -37 -122 -38 -19
-1 -5 16 23 29 19 8 28 18 25 27 -3 8 1 14 8 14 8 0 16 6 19 13 5 15 90 16 95
1z m-238 -44 c0 -5 -16 -10 -36 -10 -21 0 -33 4 -29 10 3 6 19 10 36 10 16 0
29 -4 29 -10z m30 -31 c0 -5 -7 -9 -15 -9 -15 0 -20 12 -9 23 8 8 24 -1 24
-14z m509 12 c9 -6 10 -11 2 -15 -13 -8 -31 1 -31 15 0 11 11 11 29 0z m-246
-37 c72 -7 102 -18 91 -36 -3 -5 -11 -5 -19 2 -9 8 -14 8 -17 -1 -2 -6 -26
-13 -53 -14 -42 -2 -55 2 -77 23 -31 28 -37 47 -12 38 9 -3 48 -9 87 -12z
m-855 -44 c-7 -11 -16 -20 -20 -20 -13 0 -9 28 5 33 23 10 27 7 15 -13z m526
-22 c-25 -30 -36 -38 -54 -37 -9 0 -1 12 20 29 40 35 61 40 34 8z m336 -8 c0
-5 -4 -10 -10 -10 -5 0 -10 5 -10 10 0 6 5 10 10 10 6 0 10 -4 10 -10z m44
-68 c120 -56 116 -53 73 -48 -21 3 -58 14 -81 26 -23 11 -52 20 -64 20 -13 0
-22 6 -22 15 0 22 25 18 94 -13z m-4766 -125 c-6 -34 -23 -22 -24 17 -1 36 0
38 13 20 7 -10 12 -27 11 -37z m212 3 c8 -5 11 -10 5 -10 -5 0 -17 5 -25 10
-8 5 -10 10 -5 10 6 0 17 -5 25 -10z m3690 -7 c0 -27 -17 -48 -39 -49 -22 -1
-18 17 8 47 21 23 31 23 31 2z m-3540 -63 c0 -5 -4 -10 -10 -10 -5 0 -10 5
-10 10 0 6 5 10 10 10 6 0 10 -4 10 -10z m3515 -10 c-3 -5 -11 -10 -16 -10 -6
0 -7 5 -4 10 3 6 11 10 16 10 6 0 7 -4 4 -10z m-3909 -17 c4 -10 6 -23 5 -30
-1 -6 3 -14 9 -18 5 -3 10 -16 10 -28 0 -18 -6 -22 -30 -23 -32 -1 -40 10 -14
20 16 6 15 20 -2 79 -3 9 -1 17 4 17 6 0 13 -8 18 -17z m434 -29 c0 -8 -4 -12
-10 -9 -5 3 -10 13 -10 21 0 8 5 12 10 9 6 -3 10 -13 10 -21z m250 -28 c0 -3
-4 -8 -10 -11 -5 -3 -10 -1 -10 4 0 6 5 11 10 11 6 0 10 -2 10 -4z m36 -47
c19 -22 19 -22 -3 -10 -24 12 -39 31 -25 31 5 0 17 -10 28 -21z m314 11 c0 -5
-4 -10 -10 -10 -5 0 -10 5 -10 10 0 6 5 10 10 10 6 0 10 -4 10 -10z m-1003
-80 c-2 -9 2 -21 10 -28 7 -7 13 -22 13 -34 0 -19 -2 -18 -28 8 -22 23 -26 33
-18 49 6 13 5 20 -3 23 -6 2 -11 13 -11 25 0 21 1 21 20 -3 11 -14 19 -32 17
-40z m2103 56 c0 -2 -7 -7 -16 -10 -8 -3 -12 -2 -9 4 6 10 25 14 25 6z m-1689
-68 c14 -26 -7 -23 -25 4 -22 31 -21 61 0 33 9 -11 20 -28 25 -37z m822 38
c18 -14 22 -26 10 -26 -5 0 -19 9 -33 20 -16 13 -20 20 -10 19 8 0 23 -6 33
-13z m207 6 c0 -13 -12 -22 -22 -16 -10 6 -1 24 13 24 5 0 9 -4 9 -8z m608 -8
c-9 -9 -21 -13 -27 -9 -16 10 -3 25 22 25 20 0 20 -1 5 -16z m-568 -16 c0 -16
-3 -19 -11 -11 -6 6 -8 16 -5 22 11 17 16 13 16 -11z m2294 7 c-4 -8 -10 -15
-15 -15 -4 0 -6 7 -3 15 4 8 10 15 15 15 4 0 6 -7 3 -15z m-2972 -47 c-7 -7
-12 -8 -12 -2 0 14 12 26 19 19 2 -3 -1 -11 -7 -17z m2974 -6 c-17 -16 -18
-16 -5 5 7 12 15 20 18 17 3 -2 -3 -12 -13 -22z m-3763 -61 c19 -7 28 -22 38
-60 7 -28 16 -51 21 -51 4 0 8 -6 8 -14 0 -8 5 -18 12 -22 7 -4 8 -3 4 4 -10
16 3 15 17 -1 28 -30 54 -77 86 -152 19 -44 43 -95 53 -113 21 -34 74 -174 88
-230 4 -18 24 -77 43 -130 39 -106 82 -270 73 -279 -6 -6 -46 57 -46 75 0 6
-5 12 -10 12 -6 0 -15 12 -20 26 -6 14 -21 40 -34 57 -13 18 -36 61 -52 97
-15 36 -32 70 -37 77 -15 21 -46 85 -58 122 -7 20 -22 49 -35 64 -13 16 -25
36 -26 45 -1 9 -2 24 -3 32 0 8 -15 30 -33 49 -21 23 -28 38 -22 46 6 7 4 19
-6 33 -8 12 -12 27 -9 32 3 6 2 10 -2 10 -15 0 -32 60 -26 95 4 26 2 36 -10
41 -9 3 -13 12 -11 19 3 7 1 16 -5 20 -6 3 -11 20 -11 36 0 17 -5 39 -10 50
-12 22 -10 22 23 10z m2182 -11 c-3 -5 -12 -10 -18 -10 -7 0 -6 4 3 10 19 12
23 12 15 0z m-2196 -117 c9 -21 9 -28 -1 -34 -8 -5 -16 4 -25 29 -7 20 -13 38
-13 39 0 1 6 0 14 -3 7 -3 19 -17 25 -31z m1581 -868 c7 -8 8 -15 2 -15 -5 0
-15 7 -22 15 -7 8 -8 15 -2 15 5 0 15 -7 22 -15z m3860 -5 c0 -5 -4 -10 -10
-10 -5 0 -10 5 -10 10 0 6 5 10 10 10 6 0 10 -4 10 -10z m-4270 -126 c0 -8 -5
-12 -10 -9 -6 4 -8 11 -5 16 9 14 15 11 15 -7z m4395 -123 c3 -5 1 -12 -5 -16
-5 -3 -10 1 -10 9 0 18 6 21 15 7z m10 -170 c3 -5 1 -12 -5 -16 -5 -3 -10 1
-10 9 0 18 6 21 15 7z m300 -1 c3 -5 1 -10 -4 -10 -6 0 -11 5 -11 10 0 6 2 10
4 10 3 0 8 -4 11 -10z m-505 -46 c0 -8 -5 -12 -10 -9 -6 4 -8 11 -5 16 9 14
15 11 15 -7z m-120 -28 c0 -2 -7 -7 -16 -10 -8 -3 -12 -2 -9 4 6 10 25 14 25
6z m30 -36 c0 -11 -7 -20 -15 -20 -27 0 -18 30 13 39 1 1 2 -8 2 -19z m-180
-70 c0 -5 -7 -10 -16 -10 -8 0 -12 5 -9 10 3 6 10 10 16 10 5 0 9 -4 9 -10z
m95 -30 c3 -6 -1 -7 -9 -4 -18 7 -21 14 -7 14 6 0 13 -4 16 -10z m-4129 -8 c6
-4 13 -15 17 -25 5 -15 3 -16 -12 -8 -10 6 -21 17 -25 26 -6 16 2 19 20 7z
m4044 -86 c0 -3 -4 -8 -10 -11 -5 -3 -10 -1 -10 4 0 6 5 11 10 11 6 0 10 -2
10 -4z m-62 -61 c3 -25 2 -27 -12 -16 -19 16 -22 55 -3 49 6 -3 14 -17 15 -33z
m182 -65 c0 -5 -4 -10 -10 -10 -5 0 -10 5 -10 10 0 6 5 10 10 10 6 0 10 -4 10
-10z m-3580 -62 c0 -3 -21 -20 -47 -37 -27 -17 -58 -38 -71 -47 -36 -27 -123
-4 -175 46 l-40 39 49 3 c89 6 284 3 284 -4z m-688 -32 c24 -13 75 -34 112
-46 59 -20 96 -48 96 -72 0 -5 -22 -8 -48 -8 -26 0 -52 -4 -57 -9 -6 -5 -36
-18 -68 -30 -174 -64 -249 -144 -359 -383 -17 -38 -35 -68 -39 -68 -12 0 -12
2 6 74 26 100 56 177 102 253 24 39 43 78 43 85 0 7 6 22 14 33 16 23 66 146
66 163 0 16 30 31 61 32 14 0 46 -11 71 -24z m4079 1 c-10 -9 -11 -8 -5 6 3
10 9 15 12 12 3 -3 0 -11 -7 -18z m-221 -22 c-12 -15 -30 -12 -30 6 0 5 10 9
21 9 18 0 19 -2 9 -15z m695 5 c3 -5 1 -10 -4 -10 -6 0 -11 5 -11 10 0 6 2 10
4 10 3 0 8 -4 11 -10z m-790 -9 c7 -12 -12 -24 -25 -16 -11 7 -4 25 10 25 5 0
11 -4 15 -9z m345 -7 c0 -8 -4 -12 -10 -9 -5 3 -10 10 -10 16 0 5 5 9 10 9 6
0 10 -7 10 -16z m-440 -23 c0 -6 -4 -13 -10 -16 -5 -3 -10 1 -10 9 0 9 5 16
10 16 6 0 10 -4 10 -9z m393 -26 c1 -5 -6 -11 -15 -13 -11 -2 -18 3 -18 13 0
17 30 18 33 0z m-429 -46 c-3 -5 -10 -7 -15 -3 -5 3 -7 10 -3 15 3 5 10 7 15
3 5 -3 7 -10 3 -15z m321 1 c3 -5 -1 -10 -10 -10 -9 0 -13 5 -10 10 3 6 8 10
10 10 2 0 7 -4 10 -10z m-3538 -25 l36 -15 -48 -43 c-82 -72 -99 -73 -84 -6
19 82 31 91 96 64z m3493 -10 c7 -9 10 -18 7 -21 -10 -11 -37 5 -37 21 0 19
14 19 30 0z m95 -45 c-3 -5 -12 -10 -18 -10 -7 0 -6 4 3 10 19 12 23 12 15 0z
m-112 -33 c-3 -5 -10 -4 -15 1 -6 6 -7 16 -3 22 6 9 9 9 16 -1 4 -7 5 -17 2
-22z m-228 5 c0 -18 -20 -15 -23 4 -3 10 1 15 10 12 7 -3 13 -10 13 -16z m255
-22 c0 -5 -4 -10 -10 -10 -5 0 -10 5 -10 10 0 6 5 10 10 10 6 0 10 -4 10 -10z
m-530 -46 c0 -9 -5 -14 -12 -12 -18 6 -21 28 -4 28 9 0 16 -7 16 -16z m228
-21 c3 -21 22 -34 22 -15 0 4 9 8 20 8 27 0 22 -26 -7 -37 -18 -7 -29 -2 -53
24 -36 38 -38 49 -7 45 14 -2 23 -11 25 -25z m-118 2 c0 -8 -7 -15 -15 -15 -8
0 -15 7 -15 15 0 8 7 15 15 15 8 0 15 -7 15 -15z m382 -5 c-26 -24 -35 -25
-53 -4 -12 15 -11 16 8 10 12 -4 24 -2 28 4 3 5 14 10 22 10 14 0 13 -4 -5
-20z m103 10 c3 -5 -1 -10 -9 -10 -9 0 -16 5 -16 10 0 6 4 10 9 10 6 0 13 -4
16 -10z m-541 -53 c-11 -6 -22 -15 -26 -21 -8 -12 -10 -6 -12 35 -2 25 -1 25
27 11 27 -14 28 -16 11 -25z m634 32 c-2 -6 -8 -10 -13 -10 -5 0 -11 4 -13 10
-2 6 4 11 13 11 9 0 15 -5 13 -11z m-533 -28 c-9 -16 -25 -3 -18 15 4 10 9 12
15 6 6 -6 7 -15 3 -21z m680 -1 c3 -5 -8 -16 -25 -25 -34 -18 -37 -14 -13 15
19 22 29 25 38 10z m-684 -44 c-7 -8 -13 -31 -14 -52 -1 -22 -5 -38 -9 -36 -5
1 -13 2 -19 2 -6 0 -9 7 -6 15 4 8 2 17 -3 20 -13 8 30 65 48 65 11 0 12 -3 3
-14z m869 5 c0 -6 -4 -13 -10 -16 -5 -3 -10 1 -10 9 0 9 5 16 10 16 6 0 10 -4
10 -9z m-321 -10 c7 -5 12 -14 10 -20 -3 -7 -11 -3 -21 9 -18 21 -13 26 11 11z
m-259 -31 c0 -11 -7 -20 -15 -20 -17 0 -18 2 -9 24 9 23 24 20 24 -4z m-420
-16 c0 -8 -6 -14 -14 -14 -18 0 -29 27 -13 33 16 6 27 -1 27 -19z m-66 10 c22
-8 20 -24 -2 -24 -10 0 -23 -5 -30 -12 -7 -7 -12 -9 -12 -5 0 7 23 47 27 47 1
0 8 -3 17 -6z m286 -17 c0 -7 -12 -14 -26 -15 -22 -2 -25 0 -14 13 15 18 40
20 40 2z m410 3 c0 -5 -5 -10 -11 -10 -5 0 -7 5 -4 10 3 6 8 10 11 10 2 0 4
-4 4 -10z m-189 -27 c-12 -20 -14 -14 -5 12 4 9 9 14 11 11 3 -2 0 -13 -6 -23z
m-584 -9 c-9 -9 -28 6 -21 18 4 6 10 6 17 -1 6 -6 8 -13 4 -17z m551 -31 c5
-18 -23 -16 -39 3 -11 14 -10 15 11 12 13 -1 25 -9 28 -15z m-228 -17 c0 -8
-13 -16 -30 -18 -16 -3 -30 -1 -30 4 0 4 6 8 14 8 8 0 17 7 20 16 7 17 26 10
26 -10z m-379 -13 c3 1 2 -2 -2 -6 -7 -10 -39 2 -39 14 0 6 8 6 19 0 10 -6 20
-9 22 -8z m59 -3 c0 -5 -5 -10 -11 -10 -5 0 -7 5 -4 10 3 6 8 10 11 10 2 0 4
-4 4 -10z m200 -24 c0 -14 -4 -28 -10 -31 -5 -3 -10 2 -10 12 0 11 -5 24 -12
31 -9 9 -7 12 10 12 17 0 22 -6 22 -24z m225 -7 c10 -15 -1 -23 -20 -15 -9 3
-13 10 -10 16 8 13 22 13 30 -1z m115 -5 c0 -17 -22 -14 -28 4 -2 7 3 12 12
12 9 0 16 -7 16 -16z m-410 -9 c-7 -8 -10 -22 -6 -30 6 -16 -11 -20 -32 -6
-19 12 6 51 32 51 15 0 16 -3 6 -15z m755 -35 c-3 -5 -11 -10 -16 -10 -6 0 -7
5 -4 10 3 6 11 10 16 10 6 0 7 -4 4 -10z m-935 -9 c0 -5 -7 -11 -15 -15 -9 -3
-15 0 -15 9 0 8 7 15 15 15 8 0 15 -4 15 -9z m124 1 c3 -5 -10 -16 -29 -25
-22 -11 -36 -13 -41 -6 -7 12 -7 12 21 27 24 14 42 15 49 4z m196 -12 c-12
-23 -40 -27 -40 -6 0 14 14 24 38 25 10 1 10 -4 2 -19z m170 4 c0 -17 -22 -14
-28 4 -2 7 3 12 12 12 9 0 16 -7 16 -16z m65 -44 c3 -5 1 -10 -4 -10 -6 0 -11
5 -11 10 0 6 2 10 4 10 3 0 8 -4 11 -10z m175 0 c0 -5 -5 -10 -11 -10 -5 0 -7
5 -4 10 3 6 8 10 11 10 2 0 4 -4 4 -10z m-810 -10 c0 -5 -4 -10 -10 -10 -5 0
-10 5 -10 10 0 6 5 10 10 10 6 0 10 -4 10 -10z m230 -25 c16 -10 12 -25 -7
-25 -19 1 -53 22 -53 34 0 7 44 1 60 -9z m113 9 c8 -8 -3 -34 -14 -34 -4 0
-13 9 -19 20 -9 17 -8 20 8 20 10 0 21 -3 25 -6z m-243 -23 c14 -27 13 -38 -7
-45 -23 -9 -32 4 -26 37 6 32 18 35 33 8z m200 -17 c0 -16 -16 -19 -25 -4 -8
13 4 32 16 25 5 -4 9 -13 9 -21z m690 6 c0 -5 -7 -7 -15 -4 -8 4 -15 8 -15 10
0 2 7 4 15 4 8 0 15 -4 15 -10z m-690 -55 l25 -15 -34 2 c-19 2 -36 9 -39 16
-5 16 17 15 48 -3z m-320 -5 c0 -5 -2 -10 -4 -10 -3 0 -8 5 -11 10 -3 6 -1 10
4 10 6 0 11 -4 11 -10z m655 -10 c3 -5 -3 -10 -15 -10 -12 0 -18 5 -15 10 3 6
10 10 15 10 5 0 12 -4 15 -10z m260 -21 c-3 -4 -12 -6 -20 -3 -8 4 -13 10 -10
15 3 4 12 6 20 3 8 -4 13 -10 10 -15z m-615 -35 c14 -36 -11 -80 -33 -57 -4 3
-2 13 5 20 9 11 9 19 0 33 -11 18 -7 30 10 30 5 0 13 -12 18 -26z m-4320 6 c0
-5 -4 -10 -10 -10 -5 0 -10 5 -10 10 0 6 5 10 10 10 6 0 10 -4 10 -10z m4140
0 c0 -5 -4 -10 -10 -10 -5 0 -10 5 -10 10 0 6 5 10 10 10 6 0 10 -4 10 -10z
m117 -6 c-3 -3 -12 -4 -19 -1 -8 3 -5 6 6 6 11 1 17 -2 13 -5z m-244 -18 c15
-12 14 -14 -19 -19 -47 -8 -63 1 -32 18 30 17 30 17 51 1z m707 -26 c0 -5 -4
-10 -10 -10 -5 0 -10 5 -10 10 0 6 5 10 10 10 6 0 10 -4 10 -10z m-40 -20 c0
-5 -2 -10 -4 -10 -3 0 -8 5 -11 10 -3 6 -1 10 4 10 6 0 11 -4 11 -10z m-620
-10 c0 -5 -7 -10 -15 -10 -8 0 -15 5 -15 10 0 6 7 10 15 10 8 0 15 -4 15 -10z
m377 4 c-3 -3 -12 -4 -19 -1 -8 3 -5 6 6 6 11 1 17 -2 13 -5z m-207 -14 c0 -5
-5 -10 -11 -10 -5 0 -7 5 -4 10 3 6 8 10 11 10 2 0 4 -4 4 -10z m-440 -10 c0
-5 -2 -10 -4 -10 -3 0 -8 5 -11 10 -3 6 -1 10 4 10 6 0 11 -4 11 -10z m410 1
c0 -14 -38 -24 -52 -14 -9 5 -3 10 17 14 17 4 31 7 33 8 1 0 2 -3 2 -8z m415
-11 c3 -5 1 -10 -4 -10 -6 0 -11 5 -11 10 0 6 2 10 4 10 3 0 8 -4 11 -10z
m-513 -42 c-12 -12 -35 -1 -27 12 3 5 13 6 21 3 10 -4 12 -9 6 -15z m506 -38
c-2 -8 -11 -6 -27 7 -15 13 -21 24 -16 32 6 10 12 8 27 -7 11 -11 19 -25 16
-32z m-444 25 c-4 -8 -8 -15 -10 -15 -2 0 -4 7 -4 15 0 8 4 15 10 15 5 0 7 -7
4 -15z m241 -3 c-3 -3 -11 0 -18 7 -9 10 -8 11 6 5 10 -3 15 -9 12 -12z m-75
4 c0 -11 -19 -15 -25 -6 -3 5 1 10 9 10 9 0 16 -2 16 -4z m-4435 -36 c3 -5 1
-10 -4 -10 -6 0 -11 5 -11 10 0 6 2 10 4 10 3 0 8 -4 11 -10z m4375 -20 c0 -5
-4 -10 -10 -10 -5 0 -10 5 -10 10 0 6 5 10 10 10 6 0 10 -4 10 -10z m-500
-105 c0 -8 -4 -15 -10 -15 -5 0 -10 7 -10 15 0 8 5 15 10 15 6 0 10 -7 10 -15z
m310 5 c0 -5 -5 -10 -11 -10 -5 0 -7 5 -4 10 3 6 8 10 11 10 2 0 4 -4 4 -10z
m560 -58 c0 -13 -12 -22 -22 -16 -10 6 -1 24 13 24 5 0 9 -4 9 -8z m-1040 -32
c0 -5 -4 -10 -10 -10 -5 0 -10 5 -10 10 0 6 5 10 10 10 6 0 10 -4 10 -10z
m-3755 -20 c3 -5 2 -10 -4 -10 -5 0 -13 5 -16 10 -3 6 -2 10 4 10 5 0 13 -4
16 -10z"/>
<path d="M3472 8758 c2 -6 10 -14 16 -16 7 -2 10 2 6 12 -7 18 -28 22 -22 4z"/>
<path d="M3245 8720 c3 -5 8 -10 11 -10 2 0 4 5 4 10 0 6 -5 10 -11 10 -5 0
-7 -4 -4 -10z"/>
<path d="M3506 8705 c4 -8 7 -15 9 -15 1 0 8 7 15 15 10 13 9 15 -8 15 -15 0
-20 -5 -16 -15z"/>
<path d="M4004 8675 c-17 -13 -17 -14 -2 -15 9 0 20 5 23 11 11 17 0 20 -21 4z"/>
<path d="M3520 8660 c-8 -5 -12 -12 -9 -15 4 -3 12 1 19 10 14 17 11 19 -10 5z"/>
<path d="M3880 8650 c-12 -8 -12 -10 2 -15 19 -7 38 1 38 16 0 12 -21 11 -40
-1z"/>
<path d="M3458 8643 c0 -5 -2 -12 -3 -18 -1 -5 -5 -18 -10 -28 -11 -25 24 -61
45 -46 13 8 13 11 -2 20 -22 12 -24 39 -3 39 19 0 19 7 1 26 -16 16 -25 18
-28 7z"/>
<path d="M4560 8632 c0 -13 42 -20 66 -11 16 6 15 8 -8 8 -14 1 -33 4 -42 7
-9 3 -16 2 -16 -4z"/>
<path d="M4472 8608 c6 -18 28 -21 28 -4 0 9 -7 16 -16 16 -9 0 -14 -5 -12
-12z"/>
<path d="M4281 8601 c-8 -5 -20 -7 -28 -4 -19 7 -83 -38 -83 -59 0 -9 -15 -29
-32 -44 -22 -17 -34 -37 -35 -56 l-3 -30 29 31 c18 19 39 31 55 31 14 0 26 5
26 11 0 5 -4 8 -9 4 -15 -9 -6 45 11 61 8 8 32 17 54 20 37 5 58 20 48 36 -7
10 -15 10 -33 -1z"/>
<path d="M4620 8580 c-13 -8 -12 -10 3 -10 9 0 17 5 17 10 0 12 -1 12 -20 0z"/>
<path d="M4335 8550 c-3 -5 1 -10 10 -10 9 0 13 5 10 10 -3 6 -8 10 -10 10 -2
0 -7 -4 -10 -10z"/>
<path d="M3841 8536 c-19 -23 4 -28 24 -6 15 17 16 20 3 20 -9 0 -21 -6 -27
-14z"/>
<path d="M4220 8510 c0 -5 6 -10 14 -10 8 0 18 5 21 10 3 6 -3 10 -14 10 -12
0 -21 -4 -21 -10z"/>
<path d="M3477 8503 c-4 -3 -7 -11 -7 -17 0 -6 5 -5 12 2 6 6 9 14 7 17 -3 3
-9 2 -12 -2z"/>
<path d="M3867 8480 c-18 -26 -12 -52 12 -48 18 4 28 45 13 60 -6 6 -15 2 -25
-12z"/>
<path d="M3360 8476 c0 -8 5 -18 10 -21 6 -3 10 1 10 9 0 8 -4 18 -10 21 -5 3
-10 -1 -10 -9z"/>
<path d="M4285 8480 c4 -6 11 -8 16 -5 14 9 11 15 -7 15 -8 0 -12 -5 -9 -10z"/>
<path d="M4046 8450 c-4 -23 -14 -34 -36 -42 -20 -7 -30 -16 -28 -27 2 -9 -6
-23 -17 -33 -11 -9 -16 -20 -12 -25 5 -4 22 7 39 25 33 38 50 36 24 -2 -21
-32 -20 -36 4 -36 19 0 24 12 22 50 0 8 4 18 10 21 6 4 11 20 12 36 1 17 7 38
15 47 12 14 11 16 -7 16 -14 0 -21 -9 -26 -30z"/>
<path d="M3192 8433 c0 -48 15 -90 28 -77 11 11 -9 114 -21 114 -4 0 -7 -17
-7 -37z"/>
<path d="M3463 8443 c-18 -7 -16 -33 2 -33 8 0 15 2 15 4 0 2 3 11 6 20 6 16
0 19 -23 9z"/>
<path d="M4285 8443 c-11 -2 -30 -9 -42 -15 -11 -6 -37 -9 -57 -6 -23 3 -33 1
-26 -6 14 -14 -8 -36 -36 -36 -31 0 -38 -15 -17 -35 13 -13 14 -18 3 -25 -7
-4 -9 -13 -5 -20 5 -9 25 -11 63 -7 49 5 61 11 101 51 39 39 42 46 25 46 -12
0 -33 -10 -48 -21 -15 -12 -30 -19 -33 -16 -3 3 17 19 43 36 27 16 58 37 69
45 l20 15 -20 -1 c-11 0 -29 -2 -40 -5z"/>
<path d="M3360 8430 c0 -5 5 -10 10 -10 6 0 10 5 10 10 0 6 -4 10 -10 10 -5 0
-10 -4 -10 -10z"/>
<path d="M3521 8414 c0 -11 3 -14 6 -6 3 7 2 16 -1 19 -3 4 -6 -2 -5 -13z"/>
<path d="M4710 8409 c-23 -10 -24 -11 -6 -21 24 -14 108 9 85 23 -18 11 -47
10 -79 -2z"/>
<path d="M3800 8379 c0 -5 5 -7 10 -4 6 3 10 8 10 11 0 2 -4 4 -10 4 -5 0 -10
-5 -10 -11z"/>
<path d="M3103 8365 c0 -8 4 -12 9 -9 4 3 8 9 8 15 0 5 -4 9 -8 9 -5 0 -9 -7
-9 -15z"/>
<path d="M3840 8361 c0 -14 5 -19 15 -14 17 6 15 25 -3 31 -7 2 -12 -5 -12
-17z"/>
<path d="M4319 8350 c-22 -12 -39 -29 -43 -45 -4 -16 -13 -25 -26 -25 -19 0
-36 -17 -27 -27 3 -2 22 -6 41 -8 26 -3 40 2 48 14 7 10 23 23 36 30 24 13 21
34 -3 24 -24 -9 -17 11 7 22 25 11 36 35 16 35 -7 -1 -29 -10 -49 -20z"/>
<path d="M4525 8360 c-3 -5 3 -10 14 -10 12 0 21 5 21 10 0 6 -6 10 -14 10 -8
0 -18 -4 -21 -10z"/>
<path d="M2840 8351 c0 -10 24 -21 46 -21 8 0 11 6 8 15 -6 16 -54 21 -54 6z"/>
<path d="M4428 8344 c-23 -13 -26 -18 -18 -39 6 -16 5 -25 -3 -29 -7 -2 1 -5
17 -5 24 -1 26 1 16 14 -15 18 -5 35 21 35 12 0 19 7 19 20 0 23 -14 24 -52 4z"/>
<path d="M4566 8324 c-3 -8 -11 -14 -19 -14 -7 0 -25 -6 -40 -12 -33 -16 -44
-38 -15 -30 11 2 22 11 25 18 3 9 21 14 47 14 45 0 72 12 62 28 -9 14 -54 12
-60 -4z"/>
<path d="M4746 8325 c-3 -9 0 -15 9 -15 16 0 20 16 6 24 -5 3 -11 -1 -15 -9z"/>
<path d="M3235 8320 c3 -5 11 -10 16 -10 6 0 7 5 4 10 -3 6 -11 10 -16 10 -6
0 -7 -4 -4 -10z"/>
<path d="M4665 8320 c-3 -6 1 -7 9 -4 18 7 21 14 7 14 -6 0 -13 -4 -16 -10z"/>
<path d="M2892 8309 c2 -6 8 -10 13 -10 5 0 11 4 13 10 2 6 -4 11 -13 11 -9 0
-15 -5 -13 -11z"/>
<path d="M3487 8301 c6 -25 19 -35 27 -22 3 4 -3 16 -14 26 -18 16 -18 16 -13
-4z"/>
<path d="M2947 8297 c-3 -7 2 -21 9 -32 13 -18 15 -18 31 -2 10 9 12 17 6 17
-6 0 -18 7 -26 15 -12 11 -16 12 -20 2z"/>
<path d="M4960 8284 c35 -15 80 -12 80 6 0 6 -26 10 -57 10 l-58 -1 35 -15z"/>
<path d="M2813 8279 c24 -14 22 -39 -4 -39 -11 0 -17 -4 -14 -10 4 -6 14 -8
24 -5 9 3 26 -2 37 -10 32 -24 37 -17 13 23 -26 42 -37 52 -59 52 -12 -1 -11
-3 3 -11z"/>
<path d="M3115 8280 c3 -5 8 -10 11 -10 2 0 4 5 4 10 0 6 -5 10 -11 10 -5 0
-7 -4 -4 -10z"/>
<path d="M4598 8259 c-2 -7 -24 -11 -51 -11 -35 1 -47 -2 -47 -13 0 -18 12
-19 29 -2 10 10 15 8 26 -6 12 -17 14 -17 34 4 12 13 21 26 21 31 0 12 -8 10
-12 -3z"/>
<path d="M4440 8221 c14 -27 14 -28 -19 -23 -20 3 -28 8 -24 18 6 17 -17 18
-52 2 -35 -16 -32 -31 5 -23 26 6 29 4 23 -12 -3 -10 -11 -24 -17 -32 -9 -12
-7 -13 7 -8 10 4 25 7 33 7 9 0 13 4 10 8 -3 5 17 14 44 21 28 7 50 15 50 17
0 11 -42 44 -55 44 -12 0 -13 -4 -5 -19z"/>
<path d="M4625 8229 c-4 -6 -5 -13 -2 -16 7 -7 27 6 27 18 0 12 -17 12 -25 -2z"/>
<path d="M4680 8229 c0 -5 5 -7 10 -4 6 3 10 8 10 11 0 2 -4 4 -10 4 -5 0 -10
-5 -10 -11z"/>
<path d="M3010 8200 c0 -5 6 -10 14 -10 8 0 18 5 21 10 3 6 -3 10 -14 10 -12
0 -21 -4 -21 -10z"/>
<path d="M4633 8190 c-34 -4 -69 -12 -77 -19 -10 -8 -21 -9 -32 -3 -12 7 -23
3 -42 -15 -28 -25 -25 -41 5 -25 15 8 22 6 31 -9 13 -20 13 -20 43 2 24 17 33
18 44 9 12 -10 16 -8 23 10 l8 23 22 -28 c15 -19 22 -23 22 -12 0 9 9 19 20
22 11 4 18 10 15 15 -3 5 15 12 40 16 25 3 44 8 42 11 -9 8 -102 10 -164 3z"/>
<path d="M4850 8155 c0 -13 4 -14 20 -5 11 6 20 13 20 15 0 3 -9 5 -20 5 -11
0 -20 -7 -20 -15z"/>
<path d="M4922 8159 c-13 -5 -21 -13 -18 -18 7 -10 56 -2 56 10 0 14 -14 17
-38 8z"/>
<path d="M5321 8147 c-17 -17 -13 -27 15 -37 18 -7 30 -7 39 0 8 6 17 5 30 -4
16 -12 14 -14 -23 -20 -41 -6 -53 -18 -32 -31 6 -4 41 -8 79 -10 53 -2 78 -9
111 -30 23 -14 39 -29 36 -33 -4 -3 -19 3 -34 15 -15 11 -40 23 -55 27 -28 7
-28 6 -12 -18 9 -14 31 -30 50 -36 18 -6 41 -20 50 -30 10 -11 47 -36 82 -56
44 -24 63 -40 59 -50 -3 -8 0 -14 6 -14 6 0 44 -34 85 -75 41 -41 79 -75 84
-75 4 0 22 -14 40 -31 22 -22 34 -28 42 -20 8 8 16 6 29 -6 37 -33 14 -44 -36
-18 -16 9 -31 13 -33 11 -8 -8 7 -26 21 -26 8 0 19 -7 27 -16 16 -20 69 -47
77 -40 3 3 -2 14 -12 25 -16 17 -16 19 5 24 21 6 21 7 6 31 -10 14 -17 32 -17
39 0 8 -7 20 -16 28 -8 7 -25 31 -36 53 -21 43 -211 236 -259 265 -179 106
-189 112 -200 106 -4 -3 -13 3 -18 13 -17 32 -167 62 -190 39z"/>
<path d="M4738 8141 c10 -6 9 -10 -7 -14 -25 -6 -28 -27 -4 -27 9 0 46 -14 82
-31 62 -29 64 -32 46 -45 -11 -8 -31 -17 -45 -20 -46 -10 -57 -17 -32 -21 25
-5 31 -23 7 -23 -8 0 -15 -5 -15 -10 0 -6 7 -13 15 -16 8 -4 15 -15 15 -26 0
-10 4 -16 10 -13 5 3 21 -2 35 -11 22 -14 30 -15 53 -5 26 12 26 13 7 27 -22
16 -59 19 -50 4 3 -5 1 -10 -4 -10 -11 0 -15 12 -12 43 1 9 -3 17 -8 17 -6 0
-11 8 -11 19 0 15 10 20 58 24 31 3 64 7 72 9 8 2 16 -1 17 -7 2 -5 -7 -10
-19 -10 -14 0 -24 -7 -26 -18 -2 -10 0 -17 5 -16 14 4 68 -14 74 -24 4 -5 17
-11 30 -12 39 -5 54 -9 61 -20 4 -5 10 -6 14 -2 4 4 -1 16 -11 27 -10 11 -14
21 -9 21 5 1 20 3 33 4 28 3 43 23 35 48 -4 11 0 17 12 17 9 0 23 -8 30 -17
13 -17 15 -17 24 -1 10 16 14 16 33 4 12 -8 31 -12 42 -9 11 2 28 4 37 4 10 0
20 4 23 9 9 14 -15 23 -30 10 -10 -8 -15 -8 -22 3 -11 17 -56 35 -115 43 -31
4 -48 11 -48 20 0 9 -11 14 -31 14 -27 0 -30 -2 -19 -15 9 -10 9 -15 1 -15 -6
0 -14 0 -18 0 -5 0 -8 4 -8 9 0 25 -12 28 -133 35 -46 2 -86 7 -89 10 -3 3
-19 2 -35 -1 -22 -4 -33 -2 -40 10 -5 10 -17 17 -26 17 -13 0 -14 -2 -4 -9z
m348 -136 c6 -15 -17 -45 -35 -45 -6 0 -11 7 -11 16 0 8 -4 12 -10 9 -5 -3
-18 -2 -27 4 -15 8 -14 10 12 16 17 4 35 8 40 10 20 7 26 5 31 -10z"/>
<path d="M5197 8112 c-9 -2 -15 -8 -11 -13 4 -6 11 -6 20 2 11 9 14 8 14 -3 0
-9 14 -14 47 -16 25 -1 44 0 41 3 -10 10 -94 31 -111 27z"/>
<path d="M4706 8056 c3 -9 14 -12 27 -8 22 5 22 5 3 -16 -17 -19 -17 -22 -3
-22 10 0 26 9 37 20 19 19 19 19 -18 30 -48 13 -52 13 -46 -4z"/>
<path d="M2355 8030 c-3 -5 1 -10 9 -10 8 0 18 5 21 10 3 6 -1 10 -9 10 -8 0
-18 -4 -21 -10z"/>
<path d="M2335 7980 c3 -5 8 -10 11 -10 2 0 4 5 4 10 0 6 -5 10 -11 10 -5 0
-7 -4 -4 -10z"/>
<path d="M5355 7980 c-3 -5 3 -10 14 -10 12 0 21 5 21 10 0 6 -6 10 -14 10 -8
0 -18 -4 -21 -10z"/>
<path d="M5212 7965 c-11 -12 -10 -15 2 -15 24 0 46 12 40 21 -8 13 -27 10
-42 -6z"/>
<path d="M4715 7950 c3 -5 14 -10 23 -10 15 0 15 2 2 10 -20 13 -33 13 -25 0z"/>
<path d="M5312 7943 c-13 -5 -7 -23 9 -23 6 0 8 4 5 9 -4 5 0 12 6 14 7 3 9 5
3 5 -5 0 -16 -2 -23 -5z"/>
<path d="M5126 7871 c-3 -5 1 -12 10 -15 20 -8 29 -1 19 13 -8 13 -22 14 -29
2z"/>
<path d="M5034 7855 c10 -8 15 -18 12 -24 -4 -5 3 -15 14 -21 17 -9 20 -8 22
10 0 11 1 26 2 33 1 7 -13 13 -34 14 -32 1 -33 0 -16 -12z"/>
<path d="M5180 7860 c0 -5 5 -10 10 -10 6 0 10 5 10 10 0 6 -4 10 -10 10 -5 0
-10 -4 -10 -10z"/>
<path d="M2372 7853 c-17 -7 -5 -23 19 -23 10 0 19 7 19 15 0 15 -14 18 -38 8z"/>
<path d="M5210 7850 c0 -5 5 -10 12 -10 6 0 4 -7 -6 -18 -15 -18 -15 -20 4
-37 11 -10 17 -21 15 -25 -3 -4 2 -10 10 -14 8 -3 15 -12 15 -20 0 -9 7 -12
19 -9 17 4 16 8 -13 35 -17 18 -26 33 -20 35 16 6 -5 73 -23 73 -7 0 -13 -4
-13 -10z"/>
<path d="M4965 7840 c3 -5 8 -10 11 -10 2 0 4 5 4 10 0 6 -5 10 -11 10 -5 0
-7 -4 -4 -10z"/>
<path d="M5130 7805 c7 -8 19 -15 26 -15 8 0 14 7 14 15 0 10 -10 15 -26 15
-22 0 -25 -2 -14 -15z"/>
<path d="M2190 7800 c-11 -7 -7 -10 18 -10 17 0 32 5 32 10 0 13 -30 13 -50 0z"/>
<path d="M4970 7790 c0 -5 5 -10 10 -10 6 0 10 5 10 10 0 6 -4 10 -10 10 -5 0
-10 -4 -10 -10z"/>
<path d="M5276 7791 c-3 -5 5 -11 19 -13 30 -6 32 -2 6 12 -11 6 -22 6 -25 1z"/>
<path d="M5005 7760 c3 -5 11 -10 16 -10 6 0 7 5 4 10 -3 6 -11 10 -16 10 -6
0 -7 -4 -4 -10z"/>
<path d="M5405 7740 c3 -5 8 -10 11 -10 2 0 4 5 4 10 0 6 -5 10 -11 10 -5 0
-7 -4 -4 -10z"/>
<path d="M2000 7569 c0 -5 5 -7 10 -4 6 3 10 8 10 11 0 2 -4 4 -10 4 -5 0 -10
-5 -10 -11z"/>
<path d="M4980 7569 c0 -5 5 -7 10 -4 6 3 10 8 10 11 0 2 -4 4 -10 4 -5 0 -10
-5 -10 -11z"/>
<path d="M5581 7298 c14 -26 28 -38 47 -38 8 0 2 13 -15 30 -33 35 -48 39 -32
8z"/>
<path d="M4810 7100 c0 -5 5 -10 10 -10 6 0 10 5 10 10 0 6 -4 10 -10 10 -5 0
-10 -4 -10 -10z"/>
<path d="M1905 6980 c-19 -8 -19 -9 3 -9 12 -1 22 4 22 9 0 6 -1 10 -2 9 -2 0
-12 -4 -23 -9z"/>
<path d="M6040 6978 c0 -18 26 -43 33 -31 2 4 -4 17 -14 27 -16 16 -19 17 -19
4z"/>
<path d="M1830 6956 c0 -9 5 -16 10 -16 6 0 10 4 10 9 0 6 -4 13 -10 16 -5 3
-10 -1 -10 -9z"/>
<path d="M3453 6765 c-16 -23 -19 -36 -11 -41 11 -7 47 32 48 53 0 25 -16 20
-37 -12z"/>
<path d="M3587 6790 c-16 -5 -34 -13 -41 -19 -7 -6 -16 -8 -19 -5 -3 4 -12 -5
-18 -20 -14 -30 -11 -36 22 -40 13 -1 32 -6 41 -10 10 -5 26 -2 40 8 28 20 39
20 32 1 -4 -8 -1 -15 6 -15 7 0 9 -8 5 -22 -7 -20 -5 -21 53 -15 73 8 84 -5
38 -46 l-31 -28 54 6 c30 3 60 9 65 13 6 3 16 8 21 9 44 10 118 38 158 58 53
28 68 30 85 13 7 -7 27 -11 46 -10 21 2 39 -3 51 -14 14 -14 18 -15 26 -3 7
11 11 10 23 -6 11 -15 15 -16 15 -5 0 8 -6 24 -14 34 -8 11 -15 28 -15 38 0
11 -7 18 -19 18 -11 0 -22 4 -25 9 -6 9 -103 24 -155 23 -47 -1 -93 -22 -87
-38 4 -11 -6 -14 -40 -14 -36 0 -45 3 -41 14 3 8 -2 16 -14 19 -11 3 -19 14
-19 25 0 12 -8 23 -17 25 -33 8 -198 6 -226 -3z m68 -20 c-3 -5 -12 -10 -18
-10 -7 0 -6 4 3 10 19 12 23 12 15 0z m-38 -45 c-4 -8 -11 -15 -17 -15 -14 0
-13 27 3 33 16 6 21 1 14 -18z m114 -32 c-18 -8 -35 -12 -38 -9 -8 7 51 35 62
28 5 -3 -6 -12 -24 -19z"/>
<path d="M6095 6690 c-3 -5 1 -10 9 -10 9 0 16 5 16 10 0 6 -4 10 -9 10 -6 0
-13 -4 -16 -10z"/>
<path d="M4048 6653 c7 -3 16 -2 19 1 4 3 -2 6 -13 5 -11 0 -14 -3 -6 -6z"/>
<path d="M1525 6321 c-6 -11 9 -23 19 -14 9 9 7 23 -3 23 -6 0 -12 -4 -16 -9z"/>
<path d="M1565 6300 c-16 -18 -16 -20 -2 -20 9 0 21 9 27 20 6 11 7 20 2 20
-5 0 -17 -9 -27 -20z"/>
<path d="M6236 6251 c-3 -5 3 -11 15 -14 16 -4 18 -3 8 9 -13 16 -16 17 -23 5z"/>
<path d="M6300 6210 c0 -5 5 -10 11 -10 5 0 7 5 4 10 -3 6 -8 10 -11 10 -2 0
-4 -4 -4 -10z"/>
<path d="M3843 6192 c-23 -9 -45 -20 -49 -24 -4 -4 -17 -5 -29 -2 -13 3 -26 1
-29 -5 -4 -6 -19 -11 -33 -11 -15 0 -23 -3 -20 -6 11 -11 71 -13 83 -3 6 5 64
10 128 11 127 1 135 -2 216 -83 24 -25 41 -33 71 -34 21 -1 47 -9 58 -19 11
-10 28 -16 39 -14 18 3 17 7 -14 42 -27 31 -36 36 -47 27 -11 -9 -20 -6 -41
10 -14 11 -26 26 -26 33 0 8 -13 16 -29 19 -17 4 -32 14 -36 26 -4 13 -12 17
-26 14 -11 -3 -28 2 -39 12 -14 13 -28 15 -58 10 -25 -4 -42 -2 -47 4 -8 15
-22 13 -72 -7z"/>
<path d="M6390 6170 c0 -5 5 -10 11 -10 5 0 7 5 4 10 -3 6 -8 10 -11 10 -2 0
-4 -4 -4 -10z"/>
<path d="M2400 6146 c0 -9 4 -16 9 -16 4 0 6 -12 3 -26 -5 -25 15 -48 41 -49
8 0 25 -28 46 -75 27 -64 41 -122 47 -200 6 -81 5 -88 -25 -151 -17 -36 -31
-71 -31 -76 0 -6 -13 -26 -30 -44 -16 -19 -30 -37 -30 -41 0 -5 -7 -8 -15 -8
-17 0 -55 -35 -55 -50 0 -5 7 -7 15 -4 23 9 18 -6 -10 -28 -14 -11 -25 -26
-25 -33 0 -8 -9 -17 -20 -20 -11 -3 -20 -11 -20 -16 0 -13 28 -11 32 3 3 7 12
9 22 5 15 -6 17 -14 11 -50 -4 -23 -11 -50 -16 -59 -5 -9 -9 -34 -9 -56 0 -38
-22 -96 -41 -107 -5 -4 -9 -19 -9 -36 0 -21 -11 -40 -41 -69 -22 -21 -38 -44
-35 -49 4 -5 -1 -14 -10 -19 -19 -10 -11 -32 11 -32 8 0 19 8 25 18 8 11 10
12 7 2 -2 -8 -17 -67 -32 -130 -17 -66 -40 -132 -55 -155 -14 -22 -34 -63 -43
-91 -17 -49 -17 -51 3 -97 20 -45 59 -77 93 -77 8 0 26 -9 40 -20 14 -11 33
-20 42 -20 11 0 15 -5 11 -15 -3 -8 -1 -15 4 -15 6 0 10 5 10 10 0 19 30 10
63 -20 34 -29 57 -38 57 -22 0 4 28 4 63 -1 47 -7 78 -6 127 6 l65 15 -52 7
c-48 7 -106 34 -75 35 18 0 15 20 -4 20 -23 0 -98 78 -123 128 -12 23 -26 42
-31 42 -6 0 -10 8 -10 18 0 9 -14 30 -31 47 -21 21 -29 37 -26 53 2 13 -1 29
-8 36 -22 22 -35 85 -24 114 6 15 13 38 16 52 2 13 8 27 13 30 4 3 11 22 15
42 4 23 14 40 25 43 20 6 45 59 35 74 -10 18 28 73 47 68 11 -3 15 0 11 8 -5
15 9 46 34 71 12 11 14 19 6 21 -6 2 -8 13 -6 24 4 15 8 17 13 8 9 -13 40 -5
40 11 0 5 -7 10 -15 10 -8 0 -15 7 -15 16 0 11 6 15 19 11 18 -4 19 0 17 37
-2 22 1 46 5 51 4 6 9 29 12 53 4 38 17 72 17 44 0 -7 9 -12 20 -12 11 0 20 7
20 15 0 8 -9 15 -20 15 -17 0 -20 7 -20 44 0 26 5 46 13 49 9 3 9 9 -1 26 -14
24 -2 89 21 113 14 15 49 181 42 200 -3 7 -6 29 -8 48 -5 38 -13 67 -28 90 -5
8 -12 22 -16 30 -4 8 -15 21 -25 28 -10 7 -18 19 -18 25 -1 14 -49 51 -56 44
-3 -3 -1 -14 5 -26 7 -13 8 -22 1 -26 -5 -3 -10 -1 -10 4 0 6 -7 11 -15 11 -8
0 -15 9 -15 20 0 12 -7 20 -16 20 -9 0 -29 9 -45 21 -24 17 -29 18 -29 5z"/>
<path d="M1790 6120 c0 -5 5 -10 10 -10 6 0 10 5 10 10 0 6 -4 10 -10 10 -5 0
-10 -4 -10 -10z"/>
<path d="M1757 6093 c-4 -3 -7 -11 -7 -17 0 -6 5 -5 12 2 6 6 9 14 7 17 -3 3
-9 2 -12 -2z"/>
<path d="M2200 6090 c0 -5 7 -10 16 -10 8 0 12 5 9 10 -3 6 -10 10 -16 10 -5
0 -9 -4 -9 -10z"/>
<path d="M1727 6064 c-4 -4 -7 -14 -7 -23 0 -11 3 -12 11 -4 6 6 10 16 7 23
-2 6 -7 8 -11 4z"/>
<path d="M2226 6061 c-3 -5 1 -11 9 -14 9 -4 12 -1 8 9 -6 16 -10 17 -17 5z"/>
<path d="M3663 6020 c-57 -30 -120 -87 -109 -98 4 -4 15 -7 24 -7 9 0 18 -8
20 -17 2 -11 -3 -18 -12 -18 -9 0 -16 5 -16 10 0 21 -63 5 -89 -22 -14 -16
-34 -28 -43 -28 -10 0 -18 -4 -18 -9 0 -8 16 -9 63 -2 5 0 6 5 3 10 -10 15 37
21 54 7 19 -17 33 -12 90 29 51 36 157 64 205 54 17 -4 49 -7 73 -8 34 -1 42
-5 42 -20 0 -16 -6 -17 -48 -13 -55 5 -92 -10 -132 -53 -20 -21 -25 -37 -24
-78 0 -29 6 -71 12 -94 12 -42 22 -49 75 -57 10 -1 23 -8 29 -14 15 -15 48
-16 48 -2 0 6 -4 10 -10 10 -5 0 -10 7 -10 15 0 19 14 19 30 -1 14 -16 75 -12
113 8 47 24 66 164 27 200 -11 10 -18 23 -15 29 10 16 25 10 36 -13 5 -13 28
-31 49 -42 24 -12 40 -27 42 -40 2 -16 11 -22 37 -24 29 -3 33 -1 26 15 -4 10
-10 28 -12 41 -3 12 -8 22 -12 22 -8 0 -50 32 -102 78 -49 43 -171 83 -276 89
-71 5 -83 8 -83 23 0 10 8 21 18 25 16 7 15 8 -3 15 -30 13 -45 10 -102 -20z
m-103 -155 c0 -8 -4 -15 -9 -15 -5 0 -11 7 -15 15 -3 9 0 15 9 15 8 0 15 -7
15 -15z m357 -86 c14 -14 6 -39 -12 -39 -18 0 -28 17 -21 35 6 18 18 19 33 4z
m-127 -99 c0 -5 -2 -10 -4 -10 -3 0 -8 5 -11 10 -3 6 -1 10 4 10 6 0 11 -4 11
-10z"/>
<path d="M1683 6007 c-23 -27 -39 -67 -26 -67 11 0 55 69 51 81 -2 6 -13 -1
-25 -14z"/>
<path d="M4202 5990 c13 -20 38 -28 38 -12 0 12 -23 32 -37 32 -11 0 -11 -4
-1 -20z"/>
<path d="M1510 5979 c0 -12 5 -19 12 -17 18 6 20 25 3 31 -10 5 -15 0 -15 -14z"/>
<path d="M4320 5890 c0 -5 7 -10 15 -10 8 0 15 5 15 10 0 6 -7 10 -15 10 -8 0
-15 -4 -15 -10z"/>
<path d="M4200 5858 c0 -12 1 -19 3 -17 1 2 9 12 16 22 12 14 11 17 -3 17 -10
0 -16 -8 -16 -22z"/>
<path d="M3512 5808 c-7 -7 -12 -16 -12 -20 0 -12 28 -10 36 3 10 17 -10 31
-24 17z"/>
<path d="M6160 5744 c8 -8 23 -20 34 -26 19 -10 18 -8 -3 16 -26 27 -53 37
-31 10z"/>
<path d="M2492 5733 c2 -9 8 -18 15 -20 7 -3 9 3 6 16 -6 25 -26 28 -21 4z"/>
<path d="M4306 5722 c-3 -6 -1 -14 5 -17 15 -10 25 3 12 16 -7 7 -13 7 -17 1z"/>
<path d="M3411 5696 c-11 -13 -11 -17 3 -22 21 -8 25 -4 17 19 -6 17 -8 17
-20 3z"/>
<path d="M6240 5702 c0 -6 9 -14 20 -17 24 -8 25 -18 5 -35 -19 -16 -19 -30 1
-30 8 0 12 -4 9 -10 -3 -5 3 -10 14 -10 11 0 23 5 26 10 9 14 17 12 44 -11 21
-17 22 -22 10 -29 -12 -8 -10 -12 8 -25 12 -8 28 -22 36 -30 8 -8 26 -17 41
-21 43 -10 31 18 -16 41 -32 16 -44 27 -46 47 -4 35 -47 79 -107 108 -16 8
-33 16 -37 18 -5 2 -8 -1 -8 -6z"/>
<path d="M4156 5691 c-3 -5 3 -11 13 -14 14 -3 18 -1 14 9 -6 16 -19 18 -27 5z"/>
<path d="M3517 5656 c-3 -8 4 -22 15 -33 20 -16 21 -17 15 0 -5 13 -1 17 16
17 21 1 22 1 3 15 -25 19 -42 19 -49 1z"/>
<path d="M6140 5640 c0 -5 5 -10 10 -10 6 0 10 5 10 10 0 6 -4 10 -10 10 -5 0
-10 -4 -10 -10z"/>
<path d="M5970 5610 c0 -5 5 -10 11 -10 5 0 7 5 4 10 -3 6 -8 10 -11 10 -2 0
-4 -4 -4 -10z"/>
<path d="M3490 5592 c0 -26 11 -34 27 -21 10 9 10 15 2 25 -16 19 -29 17 -29
-4z"/>
<path d="M4098 5587 c-6 -33 17 -52 48 -38 19 8 24 8 24 -3 0 -14 59 -70 66
-63 9 9 -9 59 -22 64 -8 3 -14 15 -14 28 0 30 -33 39 -49 14 -14 -23 -33 -25
-29 -3 2 10 -2 19 -8 21 -6 2 -14 -7 -16 -20z"/>
<path d="M3760 5586 c0 -8 -9 -18 -20 -21 -26 -8 -27 -45 -1 -45 11 0 23 -5
27 -11 3 -6 15 -9 25 -6 10 3 35 1 56 -3 21 -5 39 -7 41 -5 6 6 -39 43 -70 58
-18 9 -26 17 -19 21 19 12 12 26 -14 26 -15 0 -25 -6 -25 -14z"/>
<path d="M3641 5566 c-10 -12 -8 -13 8 -9 12 3 21 9 21 14 0 14 -16 11 -29 -5z"/>
<path d="M6004 5565 c26 -19 42 -19 26 0 -7 8 -20 15 -29 15 -13 -1 -13 -3 3
-15z"/>
<path d="M4053 5541 c-14 -22 -8 -31 20 -31 13 0 17 5 13 16 -3 9 -6 20 -6 25
0 15 -15 10 -27 -10z"/>
<path d="M5860 5525 c12 -13 27 -22 32 -19 11 7 -26 44 -43 44 -7 0 -2 -11 11
-25z"/>
<path d="M5946 5535 c4 -8 10 -15 15 -15 5 0 9 7 9 15 0 8 -7 15 -15 15 -9 0
-12 -6 -9 -15z"/>
<path d="M3945 5513 c-39 -27 -39 -28 -15 -31 14 -2 27 -8 30 -13 3 -4 19 2
35 15 25 20 28 26 16 40 -18 21 -20 21 -66 -11z"/>
<path d="M3450 5521 c0 -6 5 -13 10 -16 6 -3 10 1 10 9 0 9 -4 16 -10 16 -5 0
-10 -4 -10 -9z"/>
<path d="M3595 5520 c-3 -4 8 -10 23 -13 15 -2 42 -11 59 -18 21 -9 36 -10 42
-4 7 7 -13 16 -55 26 -35 9 -67 13 -69 9z"/>
<path d="M6060 5522 c0 -6 8 -17 18 -24 9 -8 30 -28 46 -46 27 -29 28 -32 10
-32 -11 0 -35 16 -54 35 -31 32 -80 65 -95 65 -14 0 -2 -17 23 -33 58 -36 57
-33 33 -62 -23 -30 -28 -55 -10 -55 7 0 18 -8 25 -17 7 -10 16 -15 20 -11 4 4
1 15 -6 23 -10 13 -11 18 -1 28 10 9 17 7 32 -12 18 -22 18 -24 2 -36 -16 -12
-14 -14 18 -20 30 -6 39 -14 55 -48 10 -23 17 -50 15 -60 -1 -10 3 -24 9 -32
13 -15 -11 -71 -38 -91 -13 -10 -12 -14 6 -32 12 -12 19 -28 16 -35 -3 -8 3
-20 13 -28 10 -7 15 -10 11 -5 -4 4 4 18 18 31 13 12 24 27 24 34 0 16 60 14
66 -2 3 -8 -2 -34 -10 -58 -9 -24 -16 -51 -16 -61 0 -9 24 -41 54 -72 30 -30
57 -64 61 -76 8 -25 25 -27 25 -2 0 9 -11 48 -25 86 -14 38 -25 79 -25 91 0
12 -3 25 -7 29 -10 10 -14 46 -5 46 14 0 42 -58 36 -75 -5 -13 -1 -15 22 -12
19 3 28 9 25 18 -2 8 -5 30 -6 49 -1 19 -7 45 -13 57 -11 19 -10 22 2 17 17
-6 116 -204 116 -231 0 -10 7 -27 15 -37 8 -11 15 -29 15 -41 0 -12 11 -36 25
-55 14 -19 25 -44 25 -56 0 -13 5 -35 12 -50 10 -22 10 -28 -5 -39 -19 -14
-22 -56 -6 -86 12 -24 3 -59 -17 -59 -9 0 -15 -12 -16 -37 0 -21 -2 -51 -3
-68 -1 -16 4 -41 10 -55 15 -31 35 -92 35 -108 0 -7 -8 -12 -17 -12 -12 0 -14
-3 -6 -11 14 -14 53 9 53 31 0 8 7 28 16 45 8 16 17 52 20 79 3 27 7 53 11 59
3 5 11 54 17 108 10 85 10 103 -2 121 -13 18 -13 22 2 30 12 7 15 19 11 50 -3
23 -9 46 -14 52 -5 6 -12 29 -16 51 -10 50 -78 189 -117 235 -32 40 -38 47
-55 78 -12 20 -11 21 20 16 54 -10 134 -113 153 -197 3 -17 13 -36 21 -42 8
-6 14 -28 15 -52 0 -22 4 -47 9 -54 16 -27 21 19 10 103 -11 86 -43 179 -80
229 -12 15 -21 35 -21 43 0 21 -21 31 -31 15 -6 -10 -9 -11 -9 -1 0 14 -60 71
-76 72 -6 0 -22 9 -35 21 -13 12 -34 25 -46 30 -28 11 -31 33 -3 26 12 -3 20
0 20 8 0 21 -23 32 -59 29 -20 -1 -46 6 -65 17 -17 10 -39 19 -48 19 -9 0 -45
25 -80 55 -35 31 -74 58 -88 61 -34 8 -41 11 -67 30 -13 9 -23 12 -23 6z m253
-259 c8 -10 19 -34 24 -53 7 -24 15 -35 29 -36 35 -2 39 -5 16 -14 -12 -5 -29
-7 -37 -4 -10 4 -15 0 -15 -13 0 -10 -13 -26 -28 -35 -42 -25 -52 -9 -52 89 0
80 1 83 23 83 13 0 31 -8 40 -17z m322 -360 c14 -26 28 -68 30 -93 l5 -45 -14
40 c-8 22 -23 62 -35 88 -12 27 -21 51 -21 53 0 13 11 -1 35 -43z m77 -241
c13 -15 2 -30 -11 -16 -5 5 -10 20 -11 34 -3 36 2 49 7 20 3 -14 10 -31 15
-38z m-12 -147 c0 -8 -2 -15 -4 -15 -2 0 -6 7 -10 15 -3 8 -1 15 4 15 6 0 10
-7 10 -15z m-12 -60 c-3 -3 -9 2 -12 12 -6 14 -5 15 5 6 7 -7 10 -15 7 -18z
m-3 -45 c-5 -8 -11 -8 -17 -2 -6 6 -7 16 -3 22 5 8 11 8 17 2 6 -6 7 -16 3
-22z m-44 -17 c-9 -16 -10 -14 -11 12 0 21 3 26 11 18 8 -8 8 -16 0 -30z m29
-133 c0 -10 -4 -22 -10 -25 -6 -4 -10 7 -10 25 0 18 4 29 10 25 6 -3 10 -15
10 -25z"/>
<path d="M6210 5504 c0 -9 5 -14 12 -12 18 6 21 28 4 28 -9 0 -16 -7 -16 -16z"/>
<path d="M6510 5510 c-13 -9 -13 -11 0 -20 8 -6 27 -13 42 -16 29 -7 55 -30
45 -41 -4 -3 -18 2 -31 11 -31 20 -36 20 -36 2 0 -18 56 -29 81 -15 25 13 17
25 -27 44 -19 8 -37 21 -40 30 -7 17 -13 18 -34 5z"/>
<path d="M6438 5433 c7 -3 16 -2 19 1 4 3 -2 6 -13 5 -11 0 -14 -3 -6 -6z"/>
<path d="M2115 5420 c-3 -6 1 -7 9 -4 18 7 21 14 7 14 -6 0 -13 -4 -16 -10z"/>
<path d="M6659 5411 c22 -22 41 -28 41 -12 0 5 -8 11 -17 15 -10 3 -24 9 -32
12 -7 4 -4 -3 8 -15z"/>
<path d="M1942 5370 c-7 -11 -10 -20 -6 -20 13 0 44 21 44 30 0 17 -25 11 -38
-10z"/>
<path d="M5810 5360 c0 -6 9 -23 19 -38 24 -32 18 -78 -10 -87 -19 -6 -27 -35
-9 -35 5 0 7 -7 3 -15 -3 -9 2 -22 13 -29 15 -12 16 -16 5 -30 -7 -9 -19 -16
-26 -16 -7 0 -18 -7 -25 -15 -10 -12 -9 -16 4 -21 15 -6 15 -8 -4 -21 -11 -8
-20 -23 -20 -33 0 -31 -18 -32 -27 -3 -9 26 -11 23 -31 -44 -26 -85 -26 -89
-7 -97 10 -3 18 1 21 12 3 9 9 26 14 37 5 11 11 28 14 37 8 25 76 36 91 14 7
-9 17 -16 24 -16 13 0 15 49 2 69 -13 20 37 106 67 116 11 3 18 18 20 41 2 37
-13 68 -29 58 -5 -3 -9 2 -9 10 0 9 -7 16 -15 16 -9 0 -12 6 -9 15 4 8 2 15
-2 15 -5 0 -20 16 -33 35 -23 34 -41 45 -41 25z m70 -120 c0 -5 -7 -10 -15
-10 -8 0 -15 5 -15 10 0 6 7 10 15 10 8 0 15 -4 15 -10z m0 -70 c0 -5 -4 -10
-10 -10 -5 0 -10 5 -10 10 0 6 5 10 10 10 6 0 10 -4 10 -10z m-38 -82 c-7 -7
-12 -8 -12 -2 0 14 12 26 19 19 2 -3 -1 -11 -7 -17z"/>
<path d="M4311 5321 c-9 -6 -10 -14 -5 -24 7 -12 11 -12 21 -2 14 16 2 37 -16
26z"/>
<path d="M5720 5321 c0 -5 -3 -18 -7 -28 -6 -16 -5 -16 10 -4 19 15 23 41 7
41 -5 0 -10 -4 -10 -9z"/>
<path d="M2160 5311 c0 -11 29 -35 35 -29 2 2 -4 12 -15 21 -11 9 -20 13 -20
8z"/>
<path d="M5910 5293 c0 -5 11 -13 25 -20 20 -9 25 -8 25 2 0 7 -7 16 -16 19
-21 8 -34 8 -34 -1z"/>
<path d="M5790 5263 c1 -27 1 -27 15 -9 14 19 12 36 -6 36 -5 0 -9 -12 -9 -27z"/>
<path d="M2097 5256 c-21 -16 -22 -32 -2 -40 8 -3 15 -12 15 -21 0 -27 31 -16
41 15 6 17 16 30 22 30 7 0 7 4 -1 12 -9 9 -15 9 -24 0 -14 -14 -32 -16 -23
-3 9 16 -9 20 -28 7z"/>
<path d="M4881 5233 c-16 -11 -20 -18 -12 -26 8 -8 17 -5 32 10 26 25 11 38
-20 16z"/>
<path d="M5650 5201 c0 -25 6 -27 13 -6 4 8 2 17 -3 20 -6 4 -10 -3 -10 -14z"/>
<path d="M5617 5153 c-4 -3 -7 -11 -7 -17 0 -6 5 -5 12 2 6 6 9 14 7 17 -3 3
-9 2 -12 -2z"/>
<path d="M5517 5123 c-4 -3 -7 -11 -7 -17 0 -6 5 -5 12 2 6 6 9 14 7 17 -3 3
-9 2 -12 -2z"/>
<path d="M3010 5050 c0 -5 5 -10 11 -10 5 0 7 5 4 10 -3 6 -8 10 -11 10 -2 0
-4 -4 -4 -10z"/>
<path d="M6880 5055 c0 -16 26 -55 37 -55 16 0 17 32 1 48 -12 12 -38 17 -38
7z"/>
<path d="M2217 4976 c-6 -14 0 -26 14 -26 3 0 9 9 12 20 6 23 -18 28 -26 6z"/>
<path d="M5305 4979 c-11 -17 0 -20 21 -4 17 13 17 14 2 15 -9 0 -20 -5 -23
-11z"/>
<path d="M6186 4972 c-10 -17 4 -56 15 -45 6 6 6 19 1 33 -6 15 -11 19 -16 12z"/>
<path d="M3063 4939 c-15 -15 -17 -65 -3 -74 6 -3 10 -18 10 -33 0 -23 37 -97
41 -82 8 35 5 70 -7 70 -19 0 -18 10 2 25 15 11 15 13 -2 34 -11 12 -21 33
-24 47 -4 20 -7 23 -17 13z"/>
<path d="M1804 4886 c-9 -24 3 -46 25 -46 16 0 18 4 12 27 -8 31 -28 42 -37
19z"/>
<path d="M6460 4860 c0 -5 5 -10 11 -10 5 0 7 5 4 10 -3 6 -8 10 -11 10 -2 0
-4 -4 -4 -10z"/>
<path d="M2160 4840 c0 -5 5 -10 10 -10 6 0 10 5 10 10 0 6 -4 10 -10 10 -5 0
-10 -4 -10 -10z"/>
<path d="M4986 4781 c-4 -5 -2 -12 3 -15 5 -4 12 -2 15 3 4 5 2 12 -3 15 -5 4
-12 2 -15 -3z"/>
<path d="M5320 4770 c0 -6 7 -10 15 -10 8 0 15 2 15 4 0 2 -7 6 -15 10 -8 3
-15 1 -15 -4z"/>
<path d="M6240 4760 c0 -5 5 -10 11 -10 5 0 7 5 4 10 -3 6 -8 10 -11 10 -2 0
-4 -4 -4 -10z"/>
<path d="M5018 4748 c-8 -7 -18 -20 -21 -29 -4 -12 0 -15 19 -11 17 3 24 11
24 28 0 28 -1 28 -22 12z"/>
<path d="M5265 4710 c3 -5 13 -10 21 -10 8 0 12 5 9 10 -3 6 -13 10 -21 10 -8
0 -12 -4 -9 -10z"/>
<path d="M5010 4681 c0 -5 7 -14 15 -21 9 -8 12 -22 8 -41 -5 -24 -3 -28 11
-23 9 3 16 11 17 18 3 29 -4 62 -15 68 -15 10 -36 10 -36 -1z"/>
<path d="M4960 4651 c0 -6 5 -13 11 -16 7 -5 5 -15 -5 -31 -19 -29 -21 -54 -3
-54 8 0 24 -11 37 -25 18 -20 21 -28 12 -37 -15 -15 -16 -63 -1 -89 8 -16 7
-23 -7 -33 -14 -11 -15 -18 -6 -44 6 -17 7 -34 3 -36 -4 -3 -5 -26 -1 -51 4
-25 3 -45 -2 -45 -4 0 -8 -7 -8 -15 0 -8 5 -15 10 -15 6 0 10 -6 10 -14 0 -7
7 -19 15 -26 21 -18 19 -33 -5 -27 -21 5 -27 -7 -9 -19 7 -4 0 -14 -18 -26
-15 -11 -21 -18 -12 -15 8 3 26 -1 39 -8 l23 -12 -23 -13 c-14 -8 -20 -8 -16
-1 10 16 -20 13 -33 -3 -9 -10 -9 -16 -1 -21 8 -5 6 -14 -4 -31 -27 -40 -18
-94 16 -94 10 0 16 -4 13 -10 -4 -6 7 -10 24 -10 33 0 42 -16 15 -27 -9 -3
-20 0 -25 8 -6 11 -11 11 -21 1 -19 -19 -38 -14 -38 10 0 16 -3 19 -11 11 -12
-12 -3 -53 12 -53 6 0 17 -7 26 -15 8 -8 18 -13 21 -11 4 2 7 -9 7 -26 0 -20
7 -35 22 -45 21 -14 22 -14 18 26 -2 27 0 41 8 41 7 0 12 18 13 45 1 30 -3 45
-11 45 -7 0 -15 7 -19 15 -3 9 0 15 9 15 19 0 18 10 0 34 -20 26 -19 37 2 29
14 -5 15 -1 10 25 -4 17 -2 34 4 38 7 4 7 10 -1 18 -5 7 -7 27 -4 45 4 18 2
37 -5 45 -6 7 -9 21 -5 30 4 9 1 16 -6 16 -10 0 -10 4 0 15 7 9 19 14 26 11
15 -6 38 19 30 33 -4 6 -13 8 -21 4 -9 -3 -15 1 -15 10 0 9 9 19 20 22 11 3
20 11 20 16 0 13 -18 11 -22 -3 -6 -17 -38 -2 -38 18 0 11 6 15 20 11 17 -4
20 0 20 23 0 16 -5 32 -10 35 -7 4 -7 12 0 25 15 27 12 33 -10 27 -27 -7 -33
19 -15 77 8 28 12 52 8 55 -5 3 -13 15 -19 25 -14 25 -34 32 -34 12 0 -20 -14
-21 -30 -1 -14 17 -4 39 16 31 15 -6 19 19 8 48 -7 17 -34 22 -34 7z m51 -757
c12 -14 11 -16 -5 -13 -11 2 -21 10 -24 17 -5 17 13 15 29 -4z"/>
<path d="M6180 4635 c-7 -14 -11 -26 -9 -27 54 -33 69 -38 69 -25 0 8 -7 20
-15 27 -8 7 -15 18 -15 26 0 24 -17 24 -30 -1z"/>
<path d="M5306 4603 c-6 -14 -5 -15 5 -6 7 7 10 15 7 18 -3 3 -9 -2 -12 -12z"/>
<path d="M5310 4565 c7 -8 17 -12 22 -9 6 4 5 10 -3 15 -22 14 -33 10 -19 -6z"/>
<path d="M6173 4562 c10 -10 17 -23 17 -28 0 -18 72 -84 91 -84 12 0 24 -13
33 -35 8 -19 22 -35 30 -35 20 0 20 4 0 43 -21 39 -50 78 -55 72 -3 -2 -26 16
-53 41 -27 24 -55 44 -64 44 -13 0 -13 -2 1 -18z"/>
<path d="M3405 4560 c3 -5 11 -10 16 -10 6 0 7 5 4 10 -3 6 -11 10 -16 10 -6
0 -7 -4 -4 -10z"/>
<path d="M5622 4553 c-16 -6 -36 -51 -33 -75 1 -10 -3 -18 -8 -18 -6 0 -11 -4
-11 -10 0 -5 6 -10 13 -10 13 0 37 45 37 70 0 9 5 21 12 28 14 14 9 21 -10 15z"/>
<path d="M6250 4551 c0 -5 7 -12 16 -15 14 -5 15 -4 4 9 -14 17 -20 19 -20 6z"/>
<path d="M5663 4525 c-3 -9 -3 -19 1 -22 7 -7 36 16 36 28 0 15 -30 10 -37 -6z"/>
<path d="M1692 4508 c6 -18 28 -21 28 -4 0 9 -7 16 -16 16 -9 0 -14 -5 -12
-12z"/>
<path d="M5354 4497 c4 -18 2 -35 -6 -44 -10 -13 -9 -15 7 -12 26 5 32 51 9
70 -16 13 -17 12 -10 -14z"/>
<path d="M1615 4469 c-10 -15 3 -25 16 -12 7 7 7 13 1 17 -6 3 -14 1 -17 -5z"/>
<path d="M1690 4458 c0 -19 2 -20 10 -8 13 19 13 30 0 30 -5 0 -10 -10 -10
-22z"/>
<path d="M6039 4458 c0 -7 -25 -33 -55 -57 -55 -43 -64 -59 -26 -47 22 7 112
93 112 107 0 14 -30 11 -31 -3z"/>
<path d="M5062 4443 c5 -25 28 -28 28 -4 0 12 -6 21 -16 21 -9 0 -14 -7 -12
-17z"/>
<path d="M5310 4429 c0 -5 5 -7 10 -4 6 3 10 8 10 11 0 2 -4 4 -10 4 -5 0 -10
-5 -10 -11z"/>
<path d="M6093 4404 c-13 -28 2 -44 22 -23 11 11 11 17 2 30 -11 15 -14 14
-24 -7z"/>
<path d="M3055 4408 c-38 -4 -81 -16 -95 -25 -14 -10 -30 -18 -36 -19 -19 -3
-101 -54 -116 -71 -12 -15 -10 -16 21 -10 19 4 39 14 45 21 41 53 196 88 304
68 59 -11 70 2 20 22 -54 22 -70 24 -143 14z"/>
<path d="M4675 4390 c-4 -6 -3 -16 3 -22 6 -6 12 -6 17 2 4 6 3 16 -3 22 -6 6
-12 6 -17 -2z"/>
<path d="M3386 4360 c-17 -17 -24 -30 -18 -34 6 -4 16 3 22 14 6 11 17 20 25
20 8 0 15 7 15 15 0 21 -10 17 -44 -15z"/>
<path d="M5432 4379 c2 -6 8 -10 13 -10 5 0 11 4 13 10 2 6 -4 11 -13 11 -9 0
-15 -5 -13 -11z"/>
<path d="M5230 4370 c-13 -8 -12 -10 3 -10 9 0 17 5 17 10 0 12 -1 12 -20 0z"/>
<path d="M5376 4371 c-3 -5 -2 -21 3 -34 7 -19 15 -24 30 -20 26 7 26 6 -3 38
-13 14 -27 22 -30 16z"/>
<path d="M6440 4373 c0 -20 45 -113 57 -117 22 -9 15 27 -17 77 -28 44 -40 56
-40 40z"/>
<path d="M6360 4365 c0 -10 45 -45 58 -45 10 0 7 8 -9 25 -21 22 -49 33 -49
20z"/>
<path d="M5280 4312 c0 -6 -9 -8 -20 -5 -11 3 -20 1 -20 -4 0 -6 9 -18 20 -28
18 -17 25 -14 21 9 -1 5 3 12 10 16 8 6 8 9 0 14 -6 4 -11 3 -11 -2z"/>
<path d="M2716 4265 c-4 -13 -2 -14 14 -5 23 13 26 20 6 20 -8 0 -16 -7 -20
-15z"/>
<path d="M2768 4273 c7 -3 16 -2 19 1 4 3 -2 6 -13 5 -11 0 -14 -3 -6 -6z"/>
<path d="M4355 4270 c3 -5 8 -10 11 -10 2 0 4 5 4 10 0 6 -5 10 -11 10 -5 0
-7 -4 -4 -10z"/>
<path d="M5880 4236 c0 -14 5 -28 10 -31 6 -4 10 7 10 24 0 17 -4 31 -10 31
-5 0 -10 -11 -10 -24z"/>
<path d="M2080 4234 c0 -17 22 -14 28 4 2 7 -3 12 -12 12 -9 0 -16 -7 -16 -16z"/>
<path d="M6272 4238 c6 -16 36 -34 44 -25 9 9 -15 37 -33 37 -8 0 -13 -5 -11
-12z"/>
<path d="M2353 4213 c-20 -7 -15 -23 7 -23 11 0 20 4 20 9 0 13 -12 19 -27 14z"/>
<path d="M5228 4203 c7 -3 16 -2 19 1 4 3 -2 6 -13 5 -11 0 -14 -3 -6 -6z"/>
<path d="M2105 4190 c-3 -5 1 -10 9 -10 8 0 18 5 21 10 3 6 -1 10 -9 10 -8 0
-18 -4 -21 -10z"/>
<path d="M3862 4188 c6 -18 28 -21 28 -4 0 9 -7 16 -16 16 -9 0 -14 -5 -12
-12z"/>
<path d="M2310 4160 c0 -5 5 -10 11 -10 5 0 7 5 4 10 -3 6 -8 10 -11 10 -2 0
-4 -4 -4 -10z"/>
<path d="M2865 4140 c-3 -5 -1 -10 4 -10 6 0 11 5 11 10 0 6 -2 10 -4 10 -3 0
-8 -4 -11 -10z"/>
<path d="M3896 4108 c-21 -41 -20 -41 9 -14 25 23 33 46 16 46 -5 0 -17 -14
-25 -32z"/>
<path d="M4970 4126 c0 -2 7 -7 16 -10 8 -3 12 -2 9 4 -6 10 -25 14 -25 6z"/>
<path d="M5340 4115 c0 -8 5 -15 10 -15 6 0 10 7 10 15 0 8 -4 15 -10 15 -5 0
-10 -7 -10 -15z"/>
<path d="M2065 4099 c-10 -15 1 -23 20 -15 9 3 13 10 10 16 -8 13 -22 13 -30
-1z"/>
<path d="M3934 4078 c-4 -6 1 -17 11 -25 28 -20 36 -16 23 12 -12 27 -23 31
-34 13z"/>
<path d="M6672 4078 c-14 -14 -16 -28 -3 -28 5 0 11 9 14 20 6 23 5 24 -11 8z"/>
<path d="M2010 4000 c-8 -5 -11 -12 -7 -16 4 -4 15 0 24 9 18 18 8 23 -17 7z"/>
<path d="M1930 3970 c0 -5 5 -10 10 -10 6 0 10 5 10 10 0 6 -4 10 -10 10 -5 0
-10 -4 -10 -10z"/>
<path d="M4020 3963 c0 -15 19 -37 26 -31 3 4 -1 14 -10 23 -9 9 -16 13 -16 8z"/>
<path d="M1727 3946 c-4 -9 3 -16 18 -18 21 -4 35 7 35 28 0 11 -49 2 -53 -10z"/>
<path d="M1823 3915 c7 -14 18 -25 25 -25 9 0 8 7 -4 25 -21 32 -36 32 -21 0z"/>
<path d="M1705 3900 c-4 -6 -3 -16 3 -22 6 -6 12 -6 17 2 4 6 3 16 -3 22 -6 6
-12 6 -17 -2z"/>
<path d="M1770 3900 c0 -5 7 -10 16 -10 8 0 12 5 9 10 -3 6 -10 10 -16 10 -5
0 -9 -4 -9 -10z"/>
<path d="M1937 3904 c-8 -8 1 -24 14 -24 5 0 9 7 9 15 0 15 -12 20 -23 9z"/>
<path d="M4055 3881 c-3 -5 -1 -12 4 -15 13 -8 42 4 35 15 -7 12 -31 12 -39 0z"/>
<path d="M5127 3873 c-4 -3 -7 -13 -7 -21 0 -12 3 -12 15 -2 8 7 15 16 15 21
0 11 -14 12 -23 2z"/>
<path d="M4080 3834 c0 -8 5 -12 10 -9 6 4 8 11 5 16 -9 14 -15 11 -15 -7z"/>
<path d="M3847 3816 c-3 -8 -3 -17 0 -20 9 -9 34 15 27 25 -8 13 -21 11 -27
-5z"/>
<path d="M1986 3801 c-4 -7 -5 -15 -2 -18 9 -9 19 4 14 18 -4 11 -6 11 -12 0z"/>
<path d="M1870 3775 c0 -23 18 -34 33 -19 7 7 -14 44 -25 44 -5 0 -8 -11 -8
-25z"/>
<path d="M3750 3790 c0 -5 5 -10 11 -10 5 0 7 5 4 10 -3 6 -8 10 -11 10 -2 0
-4 -4 -4 -10z"/>
<path d="M3941 3793 c0 -4 4 -17 9 -28 8 -19 9 -19 9 2 1 12 -3 25 -9 28 -5 3
-10 3 -9 -2z"/>
<path d="M3830 3775 c0 -18 19 -40 26 -32 4 4 0 15 -9 24 -9 10 -17 13 -17 8z"/>
<path d="M5077 3743 c-4 -3 -7 -15 -7 -27 0 -20 0 -20 15 0 8 10 15 22 15 27
0 9 -14 9 -23 0z"/>
<path d="M3595 3711 c-6 -11 9 -23 19 -14 9 9 7 23 -3 23 -6 0 -12 -4 -16 -9z"/>
<path d="M1970 3701 c0 -5 7 -11 15 -15 9 -3 15 0 15 9 0 8 -7 15 -15 15 -8 0
-15 -4 -15 -9z"/>
<path d="M2090 3672 c0 -12 34 -42 48 -42 18 0 14 10 -10 31 -25 20 -38 24
-38 11z"/>
<path d="M3152 3623 c-31 -42 -32 -46 -15 -59 27 -20 37 -12 39 30 0 20 6 42
12 48 7 7 12 16 12 20 0 18 -17 4 -48 -39z"/>
<path d="M2440 3640 c0 -5 5 -10 10 -10 6 0 10 5 10 10 0 6 -4 10 -10 10 -5 0
-10 -4 -10 -10z"/>
<path d="M3101 3633 c-13 -11 -22 -25 -20 -32 3 -9 11 -8 28 6 13 11 22 25 20
32 -3 9 -11 8 -28 -6z"/>
<path d="M3290 3646 c0 -2 7 -6 15 -10 8 -3 15 -1 15 4 0 6 -7 10 -15 10 -8 0
-15 -2 -15 -4z"/>
<path d="M2840 3622 c0 -19 27 -38 38 -27 3 3 0 5 -6 5 -7 0 -12 6 -12 14 0 8
-4 18 -10 21 -5 3 -10 -3 -10 -13z"/>
<path d="M2995 3630 c-3 -5 -1 -10 4 -10 6 0 11 5 11 10 0 6 -2 10 -4 10 -3 0
-8 -4 -11 -10z"/>
<path d="M3850 3629 c0 -5 5 -7 10 -4 6 3 10 8 10 11 0 2 -4 4 -10 4 -5 0 -10
-5 -10 -11z"/>
<path d="M3715 3620 c3 -5 8 -10 11 -10 2 0 4 5 4 10 0 6 -5 10 -11 10 -5 0
-7 -4 -4 -10z"/>
<path d="M3231 3610 c-7 -3 -9 -14 -5 -24 4 -11 0 -22 -15 -32 -22 -16 -28
-34 -10 -34 5 0 8 4 5 9 -3 4 6 13 20 20 14 6 23 15 19 20 -3 5 4 12 15 16 11
3 20 10 20 15 0 11 -36 19 -49 10z"/>
<path d="M3526 3604 c-18 -18 -21 -40 -6 -49 6 -3 10 -1 10 6 0 7 10 23 22 36
17 19 19 23 5 23 -8 0 -23 -7 -31 -16z"/>
<path d="M3586 3605 c4 -8 10 -12 15 -9 11 6 2 24 -11 24 -5 0 -7 -7 -4 -15z"/>
<path d="M3302 3592 c-2 -7 -1 -16 3 -20 4 -4 10 -1 12 6 3 6 11 12 18 12 8 0
16 3 18 8 3 4 -6 7 -20 7 -14 0 -28 -6 -31 -13z"/>
<path d="M2295 3590 c3 -5 13 -10 21 -10 8 0 12 5 9 10 -3 6 -13 10 -21 10 -8
0 -12 -4 -9 -10z"/>
<path d="M3567 3573 c-12 -12 -7 -22 8 -17 8 4 15 10 15 15 0 11 -14 12 -23 2z"/>
<path d="M3810 3571 c0 -5 7 -15 17 -22 15 -13 15 -12 4 9 -12 23 -21 28 -21
13z"/>
<path d="M3279 3543 c-13 -17 -13 -17 6 -3 11 8 22 16 24 17 2 2 0 3 -6 3 -6
0 -17 -8 -24 -17z"/>
<path d="M3923 3545 c-9 -25 4 -29 17 -6 7 15 7 21 0 21 -6 0 -13 -7 -17 -15z"/>
<path d="M3543 3508 c2 -7 10 -13 17 -13 7 0 15 6 18 13 2 7 -5 12 -18 12 -13
0 -20 -5 -17 -12z"/>
<path d="M3910 3463 c-8 -3 -25 -17 -37 -31 -22 -24 -22 -26 -6 -53 16 -27 18
-27 35 -12 11 9 16 24 13 34 -4 11 2 23 16 32 31 22 16 43 -21 30z"/>
<path d="M3136 3422 c-3 -6 -1 -14 5 -17 15 -10 25 3 12 16 -7 7 -13 7 -17 1z"/>
<path d="M2555 3360 c4 -6 11 -8 16 -5 14 9 11 15 -7 15 -8 0 -12 -5 -9 -10z"/>
<path d="M4098 3345 c-8 -8 4 -65 13 -65 9 0 29 42 29 61 0 9 -33 13 -42 4z"/>
<path d="M2420 3321 c0 -6 5 -13 10 -16 6 -3 10 1 10 9 0 9 -4 16 -10 16 -5 0
-10 -4 -10 -9z"/>
<path d="M2680 3299 c0 -11 4 -18 10 -14 5 3 7 12 3 20 -7 21 -13 19 -13 -6z"/>
<path d="M3935 3309 c-4 -6 -5 -13 -2 -16 7 -7 27 6 27 18 0 12 -17 12 -25 -2z"/>
<path d="M4010 3300 c0 -5 5 -10 11 -10 5 0 7 5 4 10 -3 6 -8 10 -11 10 -2 0
-4 -4 -4 -10z"/>
<path d="M3876 3285 c-16 -12 -17 -15 -4 -15 9 0 18 7 22 15 7 18 6 18 -18 0z"/>
<path d="M3733 3263 c-7 -3 -13 -8 -13 -13 0 -13 30 -21 46 -12 11 6 10 9 -4
18 -9 6 -23 9 -29 7z"/>
<path d="M3818 3258 c9 -9 15 -9 24 0 9 9 7 12 -12 12 -19 0 -21 -3 -12 -12z"/>
<path d="M2822 3239 c-7 -12 -11 -23 -8 -26 8 -9 36 17 36 33 0 20 -13 17 -28
-7z"/>
<path d="M2742 3178 c-14 -14 -16 -28 -2 -28 5 0 14 9 20 20 12 22 1 27 -18 8z"/>
<path d="M2825 3100 c-3 -5 1 -10 9 -10 9 0 16 5 16 10 0 6 -4 10 -9 10 -6 0
-13 -4 -16 -10z"/>
<path d="M2807 2999 c7 -7 15 -10 18 -7 3 3 -2 9 -12 12 -14 6 -15 5 -6 -5z"/>
<path d="M3080 2990 c0 -5 5 -10 11 -10 5 0 7 5 4 10 -3 6 -8 10 -11 10 -2 0
-4 -4 -4 -10z"/>
<path d="M3515 2939 c-4 -6 -5 -12 -2 -15 2 -3 7 2 10 11 7 17 1 20 -8 4z"/>
<path d="M3076 2905 c4 -8 10 -12 15 -9 11 6 2 24 -11 24 -5 0 -7 -7 -4 -15z"/>
<path d="M3552 2909 c2 -7 10 -15 17 -17 8 -3 12 1 9 9 -2 7 -10 15 -17 17 -8
3 -12 -1 -9 -9z"/>
<path d="M2911 2895 c20 -44 34 -65 41 -65 17 0 7 27 -19 51 -14 13 -24 20
-22 14z"/>
<path d="M3527 2870 c10 -11 27 -20 38 -19 14 0 16 2 5 6 -8 4 -21 12 -28 20
-21 21 -34 15 -15 -7z"/>
<path d="M3507 2833 c-22 -6 -94 -73 -78 -73 6 0 11 -7 11 -16 0 -11 -6 -15
-20 -11 -13 3 -24 -3 -35 -20 -9 -14 -14 -27 -11 -31 3 -3 -2 -14 -11 -25 -17
-19 -17 -20 5 -8 12 6 22 18 22 26 0 16 1 16 37 20 44 5 55 14 49 40 -4 14 -3
25 1 24 25 -4 43 3 43 17 0 9 7 22 17 29 9 7 13 17 9 23 -7 12 -9 13 -39 5z"/>
<path d="M4318 2835 c-3 -5 -9 -35 -13 -65 -4 -30 -12 -61 -19 -69 -8 -11 -8
-13 3 -10 8 3 21 32 28 64 13 58 14 100 1 80z"/>
<path d="M2976 2755 c16 -24 34 -34 34 -17 -1 13 -27 42 -39 42 -7 0 -6 -9 5
-25z"/>
<path d="M3780 2764 c0 -8 5 -12 10 -9 6 3 10 10 10 16 0 5 -4 9 -10 9 -5 0
-10 -7 -10 -16z"/>
<path d="M3040 2735 c0 -8 5 -15 10 -15 6 0 10 7 10 15 0 8 -4 15 -10 15 -5 0
-10 -7 -10 -15z"/>
<path d="M2948 2703 c-24 -6 -23 -23 2 -23 11 0 20 7 20 15 0 8 -1 14 -2 14
-2 -1 -11 -3 -20 -6z"/>
<path d="M2766 2667 c3 -10 9 -15 12 -12 3 3 0 11 -7 18 -10 9 -11 8 -5 -6z"/>
<path d="M3020 2671 c0 -13 29 -35 37 -28 7 8 -15 37 -28 37 -5 0 -9 -4 -9 -9z"/>
<path d="M3395 2646 c-26 -14 -44 -38 -45 -55 0 -8 16 3 36 23 38 40 42 51 9
32z"/>
<path d="M2777 2603 c-4 -3 -7 -11 -7 -17 0 -6 5 -5 12 2 6 6 9 14 7 17 -3 3
-9 2 -12 -2z"/>
<path d="M2947 2603 c-10 -9 -8 -33 2 -33 5 0 11 9 14 20 5 20 -3 26 -16 13z"/>
<path d="M2719 2542 c-7 -87 -4 -112 13 -112 31 0 39 33 18 68 -11 18 -15 32
-10 32 15 0 12 17 -5 24 -10 3 -15 -1 -16 -12z"/>
<path d="M2936 2523 c1 -21 2 -42 3 -48 1 -5 10 1 21 15 20 26 27 60 11 60 -5
0 -16 2 -24 5 -11 5 -13 -3 -11 -32z"/>
<path d="M4171 2397 c-12 -15 -5 -27 16 -27 7 0 13 9 13 20 0 23 -13 26 -29 7z"/>
<path d="M2867 2079 c7 -7 15 -10 18 -7 3 3 -2 9 -12 12 -14 6 -15 5 -6 -5z"/>
<path d="M2636 1785 c8 -21 41 -38 49 -25 3 5 -8 16 -24 25 -27 14 -30 14 -25
0z"/>
<path d="M2847 1734 c-11 -11 3 -24 25 -24 17 0 18 2 8 15 -13 16 -23 19 -33
9z"/>
<path d="M1233 6388 c2 -7 10 -13 17 -13 7 0 15 6 18 13 2 7 -5 12 -18 12 -13
0 -20 -5 -17 -12z"/>
<path d="M1570 5580 c0 -5 5 -10 10 -10 6 0 10 5 10 10 0 6 -4 10 -10 10 -5 0
-10 -4 -10 -10z"/>
<path d="M1471 4054 c0 -11 3 -14 6 -6 3 7 2 16 -1 19 -3 4 -6 -2 -5 -13z"/>
<path d="M1447 3941 c3 -12 10 -21 15 -21 13 0 6 32 -9 37 -7 3 -9 -3 -6 -16z"/>
</g>
</svg>
